<?xml version="1.0" standalone="no"?>
<!DOCTYPE svg PUBLIC "-//W3C//DTD SVG 1.1//EN" "http://www.w3.org/Graphics/SVG/1.1/DTD/svg11.dtd" >
<svg xmlns="http://www.w3.org/2000/svg">
<metadata>
Created by FontPrep 20130207 at Wed Dec  3 13:32:19 2014
 By ericwkw
Copyright 2008 Jonas Schudel Dalton Maag Ltd. All rights reserved. This font may not be altered in any way without prior permission of Dalton Maag Ltd. DaMa is a trademark of Dalton Maag Ltd.
</metadata>
<defs>
<font id="5270f3221f518df120c54f775e32e7c4" horiz-adv-x='1024' >
  <font-face 
    font-family="EffraLight-Regular"
    font-weight="400"
    font-stretch="normal"
    units-per-em="2048"
    panose-1="2 0 3 6 8 0 0 2 0 4"
    ascent="1638"
    descent="-410"
    x-height="942"
    cap-height="1366"
    bbox="-266 -456.005 2399.01 1835.02"
    underline-thickness="40"
    underline-position="-231"
    unicode-range="U+0020-FB04"
  />
<missing-glyph horiz-adv-x="1146" 
d="M911 111v1212h-675v-1212h675zM102 1434h942v-1434h-942v1434z" />
    <glyph glyph-name="ff" unicode="ff" horiz-adv-x="1261" 
d="M928 1026v-84h311v-86h-311v-856h-92v856h-525v-856h-92v856h-188v86h188v90q0 174 74 270t225 97q151 0 246 -109l-59 -57q-80 80 -185 81q-104 1 -156 -62t-53 -226v-84h525v90q0 174 73 271q74 96 225 96t246 -109l-59 -57q-80 80 -184 81t-156 -62q-53 -63 -53 -226z
" />
    <glyph glyph-name="fi" unicode="fi" horiz-adv-x="1048" 
d="M219 856h-188v86h188v90q0 174 97 270t273 97q176 0 283 -109l-59 -65q-51 43 -99 69t-116 25q-68 0 -118 -13q-105 -27 -146 -137q-23 -57 -23 -143v-84h592v-942h-92v856h-500v-856h-92v856z" />
    <glyph glyph-name="fl" unicode="fl" horiz-adv-x="1071" 
d="M605 1319q-148 0 -221 -71t-73 -238v-68h312v-86h-312v-856h-92v856h-188v86h188v74q0 180 95 281t298 101t318 -85v-1313h-92v1270q-85 49 -233 49z" />
    <glyph glyph-name="ffi" unicode="ffi" horiz-adv-x="1665" 
d="M1202 1319q-277 0 -274 -293v-84h592v-942h-93v856h-499v-856h-92v856h-525v-856h-92v856h-188v86h188v90q0 174 74 270t225 97q151 0 246 -109l-59 -57q-80 80 -185 81q-104 1 -156 -62t-53 -226v-84h525v90q0 174 97 270t272 97q175 0 284 -109l-59 -65q-52 43 -100 69
t-128 25z" />
    <glyph glyph-name="ffl" unicode="ffl" horiz-adv-x="1687" 
d="M1221 1319q-148 0 -221 -71t-72 -238v-68h311v-86h-311v-856h-92v856h-525v-856h-92v856h-188v86h188v90q0 174 74 270t225 97q151 0 246 -109l-59 -57q-80 80 -185 81q-104 1 -156 -62t-53 -226v-84h525v74q0 180 95 281t299 101t316 -85v-1313h-92v1270q-85 49 -233 49
z" />
    <glyph glyph-name=".notdef" horiz-adv-x="1146" 
d="M911 111v1212h-675v-1212h675zM102 1434h942v-1434h-942v1434z" />
    <glyph glyph-name=".null" horiz-adv-x="0" 
 />
    <glyph glyph-name="nonmarkingreturn" horiz-adv-x="358" 
 />
    <glyph glyph-name="space" unicode=" " horiz-adv-x="370" 
 />
    <glyph glyph-name="exclam" unicode="!" horiz-adv-x="458" 
d="M164 133h129v-133h-129v133zM176 1366h107l-9 -1026h-90z" />
    <glyph glyph-name="quotedbl" unicode="&#x22;" horiz-adv-x="669" 
d="M168 1366h92v-418h-92v418zM434 1366h92v-418h-92v418z" />
    <glyph glyph-name="numbersign" unicode="#" horiz-adv-x="1576" 
d="M948 459l92 352h-387l-92 -352h387zM125 381v78h348l92 352h-317v78h340l102 383h88l-102 -383h387l102 383h88l-102 -383h301v-78h-324l-92 -352h293v-78h-315l-103 -381h-88l103 381h-387l-103 -381h-88l103 381h-326z" />
    <glyph glyph-name="dollar" unicode="$" horiz-adv-x="1116" 
d="M551 1233q-207 -11 -259 -143q-30 -77 -9 -160t124 -134q54 -28 144 -57v494zM635 61q274 27 272 269q0 109 -59 172t-213 116v-557zM551 1493h84v-170q178 -15 279 -124q28 -30 47 -56l-66 -58q-77 96 -164 126q-41 15 -96 22v-514q177 -55 259 -129q112 -101 112 -258
t-102 -251t-269 -110v-159h-84v155q-282 6 -430 205l69 68q64 -78 146 -127t215 -54v584q-301 67 -354 238q-40 126 9 242q48 116 183 168q70 28 162 32v170z" />
    <glyph glyph-name="percent" unicode="%" horiz-adv-x="1720" 
d="M1223 1290h104l-831 -1290h-105zM390 590q-134 0 -220 96t-86 274t86 273q86 94 222 94t221 -97t84 -272q-1 -176 -87 -272t-220 -96zM390 668q87 0 150 70q62 70 62 223t-62 220q-62 68 -151 68q-143 0 -192 -151q-19 -55 -19 -137t19 -138q51 -155 193 -155zM1330 -12
q-134 0 -220 96t-86 274t86 272t221 95q135 0 221 -97t85 -273q-1 -175 -87 -271t-220 -96zM1330 66q87 0 150 70q62 70 62 223q0 152 -62 220t-151 68q-143 0 -192 -151q-19 -56 -19 -138t19 -137q51 -155 193 -155z" />
    <glyph glyph-name="ampersand" unicode="&#x26;" horiz-adv-x="1292" 
d="M219 337q0 -122 82 -200t231 -78q181 0 349 199l-406 444q-127 -78 -191 -160t-65 -205zM356 842q-104 127 -104 253t85 215t222 89t211 -52t127 -167l-72 -43q-53 106 -112 141t-126 35q-117 0 -175 -59t-59 -135q-1 -77 34 -143t107 -147l446 -495l182 246l74 -54
l-195 -260l240 -266h-123l-176 190q-92 -106 -160 -146q-129 -75 -245 -76q-303 -2 -397 219q-28 67 -27 143q0 148 84 252t217 188z" />
    <glyph glyph-name="quotesingle" unicode="'" horiz-adv-x="362" 
d="M135 1366h92v-418h-92v418z" />
    <glyph glyph-name="parenleft" unicode="(" horiz-adv-x="573" 
d="M145 629q0 258 74 478t154 339h88q-99 -194 -132 -304q-78 -255 -77 -513q0 -379 141 -681q37 -77 68 -138h-88q-143 211 -203 539q-25 130 -25 280z" />
    <glyph glyph-name="parenright" unicode=")" horiz-adv-x="573" 
d="M428 628q0 -258 -74 -478t-153 -340h-88q96 188 131 302q78 252 78 513t-74 507q-31 99 -68 176t-67 138h88q142 -211 202 -538q25 -130 25 -280z" />
    <glyph glyph-name="asterisk" unicode="*" horiz-adv-x="1028" 
d="M145 897l306 164l-306 164l43 75l295 -184l-12 346h86l-12 -346l295 184l43 -75l-305 -164l305 -164l-43 -76l-295 185l12 -347h-86l12 347l-295 -185z" />
    <glyph glyph-name="plus" unicode="+" horiz-adv-x="1116" 
d="M147 702h365v355h92v-355h365v-92h-361v-356h-94v356h-367v92z" />
    <glyph glyph-name="comma" unicode="," horiz-adv-x="446" 
d="M156 0v141h135v-141l-90 -160h-62l66 160h-49z" />
    <glyph glyph-name="hyphen" unicode="-" horiz-adv-x="894" 
d="M166 623h563v-93h-563v93z" />
    <glyph glyph-name="period" unicode="." horiz-adv-x="448" 
d="M154 139h139v-143h-139v143z" />
    <glyph glyph-name="slash" unicode="/" horiz-adv-x="768" 
d="M606 1403h101l-545 -1436h-101z" />
    <glyph glyph-name="zero" unicode="0" horiz-adv-x="1116" 
d="M84 656q0 313 125 492t348 179t348 -179t125 -492t-125 -497t-348 -184q-222 0 -348 184q-125 184 -125 497zM557 70q178 0 273 154q96 154 96 432t-96 428t-273 151q-178 0 -273 -151q-96 -152 -96 -430t96 -431t273 -153z" />
    <glyph glyph-name="one" unicode="1" horiz-adv-x="1116" 
d="M322 90h243v1114l-295 -160l-41 74l336 189h99v-1217h243v-90h-585v90z" />
    <glyph glyph-name="two" unicode="2" horiz-adv-x="1116" 
d="M160 90q0 109 65 199t222 216q216 170 301 276q85 105 83 214q0 164 -151 220q-51 19 -121 19q-172 1 -270 -111q-27 -30 -47 -56l-74 51q77 132 241 188q65 22 153 22q174 -1 275 -95q101 -93 101 -240q0 -193 -206 -375q-63 -55 -164 -136q-102 -81 -160 -132t-99 -113
t-41 -145h690v-92h-798v90z" />
    <glyph glyph-name="three" unicode="3" horiz-adv-x="1116" 
d="M590 750q56 0 128 -26q71 -26 121 -74q109 -105 108 -289t-127 -289t-320 -105t-333 96q-32 23 -52 39l61 78q64 -51 110 -73q100 -47 240 -47q140 -1 230 83t90 230t-83 217t-218 74q-60 0 -148 -25l-39 68l416 497h-567v90h692v-88l-401 -465q36 9 92 9z" />
    <glyph glyph-name="four" unicode="4" horiz-adv-x="1116" 
d="M756 389v764l-527 -764h527zM852 1294v-905h149v-90h-149v-299h-96v299h-629v90l623 905h102z" />
    <glyph glyph-name="five" unicode="5" horiz-adv-x="1116" 
d="M180 176q155 -117 316 -117t256 88q96 88 96 232q0 207 -153 286q-58 29 -155 29q-98 0 -160 -24t-112 -54l-49 37l109 641h575v-92h-502l-75 -471q113 55 215 55q198 0 307 -102q108 -102 107 -294q-1 -191 -123 -307t-335 -116t-376 131z" />
    <glyph glyph-name="six" unicode="6" horiz-adv-x="1116" 
d="M252 549v-39q0 -303 178 -413q63 -38 136 -38q214 0 299 178q30 60 30 135t-12 135q-41 204 -301 204q-198 0 -328 -136q-2 -10 -2 -26zM677 1231q-115 0 -191 -45q-210 -124 -232 -502q141 123 341 123t299 -111t99 -311t-123 -309t-259 -109t-220 42q-240 120 -237 554
q0 377 136 569t386 191q92 0 159 -30t97 -56l-51 -76q-89 70 -204 70z" />
    <glyph glyph-name="seven" unicode="7" horiz-adv-x="1116" 
d="M156 1202v92h809v-90q-166 -276 -382 -790q-109 -261 -155 -414h-111q91 273 258 645t277 557h-696z" />
    <glyph glyph-name="eight" unicode="8" horiz-adv-x="1116" 
d="M557 1237q-131 0 -203 -61t-71 -166q0 -187 274 -275q275 96 275 282q0 101 -72 161q-72 59 -203 59zM221 316q0 -122 110 -197q87 -60 226 -62q217 0 304 145q30 50 30 114t-29 114q-79 134 -319 215q-68 -23 -126 -54q-196 -109 -196 -275zM930 1026q0 -223 -264 -334
q185 -62 282 -202q49 -72 49 -152q0 -249 -237 -339q-84 -32 -204 -32t-203 32q-162 62 -214 199q-53 137 9 253q61 116 183 185q56 31 105 54q-127 62 -171 110t-62 96q-19 48 -19 115t25 125q51 117 188 167q70 25 160 25t160 -26q138 -48 188 -160q25 -54 25 -116z" />
    <glyph glyph-name="nine" unicode="9" horiz-adv-x="1116" 
d="M854 745v39q0 306 -178 413q-63 38 -136 38q-213 0 -299 -177q-30 -60 -30 -136t12 -135q41 -205 301 -203q200 1 328 135q2 10 2 26zM212 598q-99 111 -99 312t124 310t275 107q336 0 416 -349q25 -110 24 -247q0 -377 -136 -568t-386 -192q-92 0 -159 30t-97 56l51 76
q88 -70 204 -70q210 0 316 166q94 146 107 381q-138 -120 -339 -121q-202 -2 -301 109z" />
    <glyph glyph-name="colon" unicode=":" horiz-adv-x="448" 
d="M166 139h139v-143h-139v143zM166 946h139v-143h-139v143z" />
    <glyph glyph-name="semicolon" unicode=";" horiz-adv-x="448" 
d="M168 0v141h135v-141l-90 -160h-61l65 160h-49zM166 946h139v-143h-139v143z" />
    <glyph glyph-name="less" unicode="&#x3c;" horiz-adv-x="1116" 
d="M150 694l776 389l43 -84l-695 -344l695 -344l-41 -84l-778 389v78z" />
    <glyph glyph-name="equal" unicode="=" horiz-adv-x="1116" 
d="M147 870h822v-92h-822v92zM147 516h822v-92h-822v92z" />
    <glyph glyph-name="greater" unicode="&#x3e;" horiz-adv-x="1116" 
d="M147 311l695 344l-695 344l41 84l779 -389v-78l-777 -389z" />
    <glyph glyph-name="question" unicode="?" horiz-adv-x="1015" 
d="M379 133h129v-133h-129v133zM397 418q0 190 151 312q42 34 107 81t99 90q65 80 65 185q0 104 -89 162t-215 58t-208 -40q-82 -41 -151 -125l-66 63q64 78 168 136t225 58q318 1 409 -194q28 -60 28 -126q0 -166 -150 -284q-47 -38 -120 -92t-103 -98q-58 -84 -60 -196
v-68h-90v78z" />
    <glyph glyph-name="at" unicode="@" horiz-adv-x="1953" 
d="M676 262q0 -96 61 -146t149 -50q150 0 257 78q104 80 102 186v151q-134 21 -254 21q-198 0 -271 -89q-44 -55 -44 -151zM1243 137q-125 -166 -351 -166q-133 0 -229 69t-96 218q0 68 24 128q82 204 402 204q122 0 250 -19v54q0 141 -74 195t-199 54q-126 0 -192 -34
t-102 -66l-55 72q87 78 227 110q53 12 113 13q182 0 280 -75t100 -255v-430q0 -127 82 -150q25 -6 64 -6t86 29q99 61 144 268q24 106 24 270t-58 295q-114 262 -401 352q-140 44 -290 44t-285 -38q-291 -82 -420 -345q-68 -137 -68 -333t81 -358q46 -91 146 -194l-67 -63
q-171 148 -240 410q-25 95 -24 204q0 384 260 605q238 202 616 202t608 -203q246 -214 244 -588q0 -335 -126 -508q-99 -135 -238 -135q-204 0 -236 170z" />
    <glyph glyph-name="A" unicode="A" horiz-adv-x="1298" 
d="M930 532l-285 709l-285 -709h570zM600 1366h98l559 -1366h-112l-178 440h-643l-177 -440h-106z" />
    <glyph glyph-name="B" unicode="B" horiz-adv-x="1189" 
d="M543 92q202 0 280 35t117 90t39 149q0 294 -404 300h-301v-574h269zM573 758q211 0 297 144q31 50 31 127q0 140 -106 202q-75 43 -222 43h-299v-516h299zM176 1366h453q188 0 289 -101q84 -86 86 -235q0 -109 -68 -200t-178 -111q215 -32 293 -193q31 -64 31 -166
q-2 -360 -515 -360h-391v1366z" />
    <glyph glyph-name="C" unicode="C" horiz-adv-x="1376" 
d="M761 -33q-134 1 -256 55t-209 150q-181 200 -181 508q0 309 183 513t476 206q206 0 358 -110q89 -65 140 -150l-74 -52q-12 17 -40 53t-78 72q-129 94 -281 95q-152 -1 -255 -49q-207 -97 -285 -329q-38 -114 -38 -245q0 -268 151 -446t412 -179q164 0 292 95
q71 52 122 125l74 -52q-92 -154 -288 -227q-88 -33 -223 -33z" />
    <glyph glyph-name="D" unicode="D" horiz-adv-x="1427" 
d="M569 92q460 0 594 331q45 111 45 261q0 291 -172 441q-172 149 -483 149h-279v-1182h295zM176 1366h373q350 0 556 -169t207 -512t-205 -514t-558 -171h-373v1366z" />
    <glyph glyph-name="E" unicode="E" horiz-adv-x="1140" 
d="M176 1366h819v-92h-721v-516h564v-92h-564v-574h775v-92h-873v1366z" />
    <glyph glyph-name="F" unicode="F" horiz-adv-x="1069" 
d="M176 1366h819v-92h-721v-516h564v-92h-564v-666h-98v1366z" />
    <glyph glyph-name="G" unicode="G" horiz-adv-x="1468" 
d="M1204 555h-364v92h463v-512q-186 -165 -525 -168q-299 0 -481 200t-182 510t183 514q87 97 210 152t257 55q218 1 368 -109q89 -66 139 -150l-74 -52q-12 17 -41 53t-79 72q-129 94 -276 95q-147 -1 -252 -49q-210 -97 -290 -329q-39 -114 -39 -245q0 -272 152 -447
q152 -176 409 -177q258 -1 422 116v379z" />
    <glyph glyph-name="H" unicode="H" horiz-adv-x="1409" 
d="M176 1366h98v-608h861v608h98v-1366h-98v666h-861v-666h-98v1366z" />
    <glyph glyph-name="I" unicode="I" horiz-adv-x="450" 
d="M176 1366h98v-1366h-98v1366z" />
    <glyph glyph-name="J" unicode="J" horiz-adv-x="964" 
d="M700 420v946h99v-963q-1 -227 -105 -331t-286 -104t-310 116q-33 31 -55 61l74 62q123 -148 289 -148q218 0 274 192q20 69 20 169z" />
    <glyph glyph-name="K" unicode="K" horiz-adv-x="1177" 
d="M176 1366h98v-713l672 713h121l-516 -551l586 -815h-117l-541 741l-205 -219v-522h-98v1366z" />
    <glyph glyph-name="L" unicode="L" horiz-adv-x="1105" 
d="M176 1366h98v-1274h775v-92h-873v1366z" />
    <glyph glyph-name="M" unicode="M" horiz-adv-x="1603" 
d="M221 1366h107l475 -811l485 811h94l62 -1366h-98l-48 1212l-471 -782h-63l-459 780l-47 -1210h-98z" />
    <glyph glyph-name="N" unicode="N" horiz-adv-x="1427" 
d="M176 1366h103l876 -1219v1219h96v-1366h-102l-877 1202v-1202h-96v1366z" />
    <glyph glyph-name="O" unicode="O" horiz-adv-x="1585" 
d="M1366 682q0 268 -159 446q-159 177 -414 178q-254 1 -414 -178q-160 -180 -160 -446t159 -444q159 -179 415 -179q129 1 235 49q212 97 297 331q41 114 41 243zM793 -33q-147 -1 -271 55t-215 152q-192 205 -192 508q0 150 51 281t141 228q191 206 486 208q147 1 271 -55
t214 -153t141 -228t51 -282t-51 -281q-104 -266 -355 -377q-124 -56 -271 -56z" />
    <glyph glyph-name="P" unicode="P" horiz-adv-x="1185" 
d="M965 973q0 301 -340 301h-351v-602h351q340 0 340 301zM176 1366h420q368 0 451 -238q53 -152 0 -311q-83 -240 -451 -237h-322v-580h-98v1366z" />
    <glyph glyph-name="Q" unicode="Q" horiz-adv-x="1585" 
d="M1366 668q0 282 -159 460q-159 177 -414 178q-254 1 -414 -178q-160 -180 -160 -446t158 -443q158 -178 416 -180q154 0 276 68l-190 225l71 60l197 -232q104 86 162 216q57 130 57 272zM115 682q0 150 51 281t141 228q191 206 486 208q147 1 271 -55t214 -153t141 -228
t51 -296t-70 -313t-194 -245l178 -207l-71 -60l-183 213q-159 -88 -321 -88q-308 0 -501 206t-193 509z" />
    <glyph glyph-name="R" unicode="R" horiz-adv-x="1220" 
d="M967 979q0 295 -351 295h-342v-590h355q338 0 338 295zM176 1366h412q372 0 458 -232q26 -71 25 -155q0 -133 -69 -237t-218 -138l326 -604h-113l-317 592h-406v-592h-98v1366z" />
    <glyph glyph-name="S" unicode="S" horiz-adv-x="1155" 
d="M934 348q0 195 -220 277q-62 23 -133 42q-202 54 -275 104q-150 102 -150 265t115 263t309 100q275 0 409 -189l-69 -59q-112 155 -345 158q-154 0 -237 -77q-82 -77 -82 -167t34 -138t89 -80t124 -52q69 -21 139 -39t142 -46q151 -59 221 -190q35 -70 35 -165
q-1 -182 -133 -285q-133 -103 -350 -103q-216 0 -386 134q-46 38 -75 79l72 70q158 -189 403 -191q165 0 264 74q99 75 99 215z" />
    <glyph glyph-name="T" unicode="T" horiz-adv-x="1261" 
d="M582 1278h-531v88h1159v-88h-530v-1278h-98v1278z" />
    <glyph glyph-name="U" unicode="U" horiz-adv-x="1376" 
d="M1210 545q0 -578 -522 -578q-407 0 -497 351q-26 105 -25 227v821h98v-770q0 -258 85 -385q101 -152 339 -152q344 0 406 322q18 98 18 215v770h98v-821z" />
    <glyph glyph-name="V" unicode="V" horiz-adv-x="1290" 
d="M37 1366h113l499 -1245l498 1245h106l-559 -1366h-98z" />
    <glyph glyph-name="W" unicode="W" horiz-adv-x="1789" 
d="M61 1366h111l328 -1227l346 1186h121l329 -1178l326 1219h107l-383 -1366h-109l-334 1180l-350 -1180h-115z" />
    <glyph glyph-name="X" unicode="X" horiz-adv-x="1204" 
d="M545 711l-469 655h119l405 -573l410 573h114l-467 -649l512 -717h-118l-449 635l-452 -635h-115z" />
    <glyph glyph-name="Y" unicode="Y" horiz-adv-x="1105" 
d="M602 0h-98v627l-471 739h119l403 -643l403 643h115l-471 -739v-627z" />
    <glyph glyph-name="Z" unicode="Z" horiz-adv-x="1261" 
d="M145 1274v92h1002v-90l-920 -1184h934v-92h-1061v90l920 1184h-875z" />
    <glyph glyph-name="bracketleft" unicode="[" horiz-adv-x="598" 
d="M176 1446h361v-88h-265v-1460h265v-88h-361v1636z" />
    <glyph glyph-name="backslash" unicode="\" horiz-adv-x="768" 
d="M61 1403h101l545 -1436h-101z" />
    <glyph glyph-name="bracketright" unicode="]" horiz-adv-x="598" 
d="M61 -102h265v1460h-265v88h361v-1636h-361v88z" />
    <glyph glyph-name="asciicircum" unicode="^" horiz-adv-x="1081" 
d="M506 1366h72l374 -735h-102l-311 624l-310 -624h-98z" />
    <glyph glyph-name="underscore" unicode="_" horiz-adv-x="1048" 
d="M12 -158h1024v-92h-1024v92z" />
    <glyph glyph-name="grave" unicode="`" horiz-adv-x="741" 
d="M250 1372h119l123 -262h-86z" />
    <glyph glyph-name="a" unicode="a" horiz-adv-x="1007" 
d="M98 248q0 336 435 336q136 0 243 -21v53q0 217 -164 254q-53 12 -123 13q-175 0 -290 -99l-49 64q40 37 126 78t211 41q181 0 281 -78t100 -258v-517q0 -42 6 -114h-88q-4 36 -4 90v68q-124 -177 -352 -183q-223 0 -302 143q-30 54 -30 130zM536 506q-134 0 -196 -26
t-102 -74q-41 -48 -41 -150t68 -150q69 -47 157 -47q153 0 255 91q103 91 101 198v133q-108 25 -242 25z" />
    <glyph glyph-name="b" unicode="b" horiz-adv-x="1097" 
d="M905 471q0 281 -180 375q-63 33 -153 33q-158 0 -258 -129q-81 -106 -83 -248v-404q112 -36 227 -36q211 -1 329 104q118 106 118 305zM580 967q209 -1 317 -139q107 -138 107 -365t-149 -357q-149 -131 -364 -131q-216 0 -350 60v1331h92v-592q110 190 347 193z" />
    <glyph glyph-name="c" unicode="c" horiz-adv-x="1013" 
d="M94 471q0 212 135 354t351 142t348 -166l-70 -53q-102 133 -276 133t-283 -119t-107 -291q2 -171 110 -291q108 -119 265 -119q101 0 181 37t126 99l66 -58q-58 -71 -154 -117t-208 -46q-213 -1 -349 141q-135 142 -135 354z" />
    <glyph glyph-name="d" unicode="d" horiz-adv-x="1101" 
d="M525 61q89 0 153 32q121 61 168 178q20 52 20 94v411q-110 103 -279 104q-170 1 -283 -106t-111 -313q0 -274 180 -367q63 -33 152 -33zM870 0q-4 54 -4 106v58q-57 -98 -190 -159q-66 -30 -166 -30t-180 38q-236 113 -236 456q0 222 136 360t366 138q123 0 270 -90v489
h90v-1246q0 -80 5 -120h-91z" />
    <glyph glyph-name="e" unicode="e" horiz-adv-x="1093" 
d="M549 881q-147 0 -246 -104q-98 -105 -104 -251h700q-19 174 -111 264t-239 91zM579 -25q-216 0 -351 140q-134 140 -134 351t127 356t327 145t327 -138q126 -138 124 -383h-802q4 -163 109 -274t258 -111q154 0 269 80q36 25 60 56l65 -56q-61 -78 -166 -122t-213 -44z
" />
    <glyph glyph-name="f" unicode="f" horiz-adv-x="645" 
d="M311 942h312v-86h-312v-856h-92v856h-188v86h188v109q0 168 75 258t225 90t245 -109l-59 -57q-80 80 -185 81t-150 -58q-57 -69 -59 -242v-72z" />
    <glyph glyph-name="g" unicode="g" horiz-adv-x="1093" 
d="M956 20q0 -454 -448 -454q-170 0 -290 76q-30 18 -46 32l53 70q110 -90 293 -90t273 103q73 85 73 257v144q-61 -98 -191 -155q-65 -28 -165 -28t-178 38q-236 113 -236 456q0 222 150 360t358 138q209 0 354 -66v-881zM527 61q91 0 155 34q121 65 165 183q19 52 19 87
v473q-105 41 -221 42q-117 1 -193 -27t-134 -81q-127 -115 -125 -311q0 -274 180 -367q63 -33 154 -33z" />
    <glyph glyph-name="h" unicode="h" horiz-adv-x="1089" 
d="M141 1366h92v-612q70 137 226 191q59 22 148 22q181 0 265 -106t84 -308v-553h-92v522q0 293 -161 342q-53 16 -131 16t-144 -36q-128 -72 -173 -221q-22 -70 -22 -138v-485h-92v1366z" />
    <glyph glyph-name="i" unicode="i" horiz-adv-x="382" 
d="M145 942h93v-942h-93v942zM127 1274h129v-133h-129v133z" />
    <glyph glyph-name="j" unicode="j" horiz-adv-x="382" 
d="M127 1274h129v-133h-129v133zM145 -43v985h93v-971q0 -194 -53 -288q-53 -93 -197 -93q-60 0 -108 23t-75 51l50 68q66 -58 137 -60q111 0 141 138q12 55 12 147z" />
    <glyph glyph-name="k" unicode="k" horiz-adv-x="929" 
d="M141 1366h92v-895l484 471h121l-361 -350l432 -592h-110l-387 526l-179 -172v-354h-92v1366z" />
    <glyph glyph-name="l" unicode="l" horiz-adv-x="374" 
d="M141 1366h92v-1366h-92v1366z" />
    <glyph glyph-name="m" unicode="m" horiz-adv-x="1734" 
d="M233 828v-83q75 146 220 199q59 23 137 23q136 -1 208 -59t101 -163q35 73 135 148q100 74 236 74q265 0 315 -243q16 -77 17 -171v-553h-93v522q0 292 -144 342q-46 16 -112 16q-131 1 -233 -103t-100 -234v-543h-93v522q0 293 -142 342q-47 16 -119 16t-136 -36
q-64 -37 -106 -94q-88 -117 -86 -265v-485h-93v859q0 37 -4 83h86q6 -70 6 -114z" />
    <glyph glyph-name="n" unicode="n" horiz-adv-x="1093" 
d="M233 828v-83q75 145 226 199q61 23 151 23q182 0 265 -105q84 -105 86 -309v-553h-93v522q0 293 -160 342q-52 16 -131 16t-145 -36q-66 -37 -108 -94q-88 -118 -86 -265v-485h-93v859q0 37 -4 83h86q6 -70 6 -114z" />
    <glyph glyph-name="o" unicode="o" horiz-adv-x="1159" 
d="M969 467q0 168 -113 292t-276 124t-277 -120q-113 -120 -113 -288t113 -292t278 -124q162 0 275 120t113 288zM580 967q199 0 342 -145t143 -350t-142 -351q-144 -146 -344 -146t-343 146q-142 146 -142 351q0 206 143 350q144 144 343 145z" />
    <glyph glyph-name="p" unicode="p" horiz-adv-x="1101" 
d="M589 881q-132 0 -216 -69q-117 -96 -132 -249q-5 -51 -5 -104v-295l38 -28q24 -18 88 -45q63 -28 155 -29q177 -2 285 107q109 109 107 296q1 286 -179 382q-64 34 -141 34zM145 -410v1277q0 29 -4 75h86q6 -64 9 -174q40 72 90 111q112 88 239 88q329 0 417 -304
q26 -91 26 -200q0 -218 -136 -353t-342 -135q-100 0 -172 28t-122 56v-469h-91z" />
    <glyph glyph-name="q" unicode="q" horiz-adv-x="1097" 
d="M528 61q92 0 157 35q122 65 163 185q18 51 18 84v473q-105 41 -221 42q-117 1 -193 -27t-134 -81q-127 -115 -125 -311q0 -274 180 -367q63 -33 155 -33zM510 -25q-200 0 -308 137t-108 358t150 359t358 138q209 0 354 -66v-1311h-92v568q-33 -53 -82 -92
q-106 -91 -272 -91z" />
    <glyph glyph-name="r" unicode="r" horiz-adv-x="690" 
d="M238 0h-93v859q0 37 -4 83h86q6 -68 6 -118v-89q44 85 101 128q118 90 248 89q45 0 77 -14l-26 -88q-23 10 -84 10q-60 0 -119 -33q-120 -67 -169 -207q-24 -69 -23 -139v-481z" />
    <glyph glyph-name="s" unicode="s" horiz-adv-x="946" 
d="M461 61q116 0 177 33q60 33 83 66t23 81q-1 93 -81 135q-49 27 -177 56q-128 28 -182 48q-177 64 -177 231q0 118 97 186t229 69q232 2 354 -145l-64 -57q-110 119 -268 119q-254 0 -254 -176q0 -113 187 -161q53 -14 108 -26q56 -12 114 -30q214 -68 214 -240
q0 -132 -110 -202q-110 -71 -254 -72q-251 -2 -396 143l59 65q123 -123 318 -123z" />
    <glyph glyph-name="t" unicode="t" horiz-adv-x="727" 
d="M707 86q-85 -111 -215 -111q-139 0 -202 69t-65 245v567h-188v86h188v311h92v-311h312v-86h-312v-545q0 -219 103 -243q31 -8 67 -9q95 0 162 82z" />
    <glyph glyph-name="u" unicode="u" horiz-adv-x="1081" 
d="M848 197q-114 -222 -370 -222q-182 0 -268 112q-75 96 -77 302v553h92v-522q0 -293 156 -342q51 -16 129 -16t144 36q126 71 169 221q20 70 21 138v485h92v-859q0 -37 4 -83h-86q-6 68 -6 112v85z" />
    <glyph glyph-name="v" unicode="v" horiz-adv-x="948" 
d="M20 942h105l354 -829l352 829h97l-410 -942h-86z" />
    <glyph glyph-name="w" unicode="w" horiz-adv-x="1392" 
d="M31 942h102l262 -821l271 821h88l264 -836l250 836h94l-301 -942h-100l-261 803l-264 -803h-88z" />
    <glyph glyph-name="x" unicode="x" horiz-adv-x="933" 
d="M403 504l-333 438h114l283 -371l274 371h103l-326 -438l385 -504h-115l-333 436l-322 -436h-102z" />
    <glyph glyph-name="y" unicode="y" horiz-adv-x="946" 
d="M208 -352q68 0 102 43t65 123l78 198l-420 930h104l363 -817l313 817h100l-462 -1165q-34 -89 -70 -128q-75 -84 -172 -84q-97 1 -164 64l47 66q48 -47 116 -47z" />
    <glyph glyph-name="z" unicode="z" horiz-adv-x="985" 
d="M150 860v82h716v-86l-635 -772h650v-84h-756v86l631 774h-606z" />
    <glyph glyph-name="braceleft" unicode="{" horiz-adv-x="544" 
d="M358 -190q-84 70 -100 247l-29 351q-4 63 -46 118t-120 66v74q78 10 120 65t46 119l29 348q16 177 100 248h105q-96 -96 -105 -225l-26 -369q-14 -180 -158 -223q58 -19 104 -69t54 -150l26 -375q9 -129 105 -225h-105z" />
    <glyph glyph-name="bar" unicode="|" horiz-adv-x="440" 
d="M176 1706h88v-2042h-88v2042z" />
    <glyph glyph-name="braceright" unicode="}" horiz-adv-x="544" 
d="M82 -190q96 96 104 225l27 375q14 173 158 219q-144 44 -158 223l-27 369q-10 131 -104 225h104q85 -71 101 -248l28 -348q4 -62 46 -118t120 -66v-74q-78 -10 -120 -66t-46 -118l-28 -351q-16 -176 -101 -247h-104z" />
    <glyph glyph-name="asciitilde" unicode="~" horiz-adv-x="909" 
d="M307 633q-80 0 -149 -86l-60 55q6 6 31 38t78 55q106 47 190 8q35 -15 97 -49t114 -33q53 1 92 29t56 50l53 -63q-34 -56 -121 -91q-35 -14 -86 -14t-86 16t-97 49q-61 35 -112 36z" />
    <glyph glyph-name="uni00A0" unicode="&#xa0;" horiz-adv-x="358" 
 />
    <glyph glyph-name="exclamdown" unicode="&#xa1;" horiz-adv-x="458" 
d="M295 809h-129v133h129v-133zM283 -424h-107l8 1026h90z" />
    <glyph glyph-name="cent" unicode="&#xa2;" horiz-adv-x="1116" 
d="M565 1055q-142 -20 -233 -138q-90 -118 -89 -275t93 -272t229 -137v822zM649 -39h-84v184q-183 16 -301 157q-119 141 -119 339t119 339t301 161v188h84v-186q201 -7 330 -164l-70 -53q-98 124 -260 131v-828q181 12 277 136l63 -60q-120 -148 -340 -162v-182z" />
    <glyph glyph-name="sterling" unicode="&#xa3;" horiz-adv-x="1116" 
d="M393 893v-156h430v-92h-430v-553h639v-92h-739v645h-141v92h141v181q0 164 59 259q94 150 316 150q158 0 272 -109q23 -22 27 -26l-60 -66q-94 113 -243 113t-218 -99q-53 -79 -53 -247z" />
    <glyph glyph-name="currency" unicode="&#xa4;" horiz-adv-x="1116" 
d="M786 477q95 95 95 224q-1 129 -95 225t-224 96t-225 -94t-95 -224t94 -226q94 -95 224 -95t226 94zM973 703q0 -138 -86 -252l139 -136l-70 -73l-139 137q-116 -90 -261 -89t-253 91l-141 -139l-70 73l141 138q-85 110 -84 247t82 250l-139 137l70 72l139 -137
q116 94 258 93t258 -91l139 135l70 -72l-139 -135q86 -111 86 -249z" />
    <glyph glyph-name="yen" unicode="&#xa5;" horiz-adv-x="1116" 
d="M143 371h375v192l-10 15h-365v81h312l-383 633h114l375 -633l377 633h111l-381 -633h297v-81h-349l-8 -15v-192h357v-82h-357v-289h-90v289h-375v82z" />
    <glyph glyph-name="brokenbar" unicode="&#xa6;" horiz-adv-x="440" 
d="M176 440h88v-776h-88v776zM176 1706h88v-776h-88v776z" />
    <glyph glyph-name="section" unicode="&#xa7;" horiz-adv-x="985" 
d="M497 -346q138 0 206 85q69 85 69 193q0 181 -215 306l-373 239l54 82l350 -221q129 -81 181 -141q105 -120 104 -269t-107 -257q-106 -109 -270 -107q-113 0 -188 35t-111 63l51 74q66 -42 120 -62t129 -20zM537 1401q97 0 166 -28t112 -64l-53 -80q-110 80 -231 81
t-195 -85t-76 -193q0 -152 148 -260q37 -27 67 -45l373 -240l-53 -81l-351 221q-131 83 -182 141q-104 119 -103 267t113 257t265 109z" />
    <glyph glyph-name="dieresis" unicode="&#xa8;" horiz-adv-x="716" 
d="M145 1286h123v-129h-123v129zM449 1286h122v-129h-122v129z" />
    <glyph glyph-name="copyright" unicode="&#xa9;" horiz-adv-x="1654" 
d="M115 684q0 300 205 506t509 209q150 1 280 -55q260 -111 376 -380q55 -130 55 -280t-55 -280t-151 -227t-225 -152q-130 -55 -281 -55q-150 0 -280 54q-262 112 -378 380q-55 130 -55 280zM827 55q265 0 437 182t172 445q0 129 -45 244q-91 232 -319 334q-112 49 -245 49
q-263 0 -436 -181q-174 -181 -174 -446q0 -129 45 -244q90 -231 321 -334q111 -49 244 -49zM841 287q-175 0 -284 111q-108 111 -107 276q1 166 111 279q110 112 273 112q100 0 182 -45t133 -123l-72 -49q-41 57 -107 94t-131 37q-125 0 -210 -90q-84 -90 -83 -214
q1 -125 80 -213q79 -89 208 -87q80 0 144 40t105 97l66 -55q-51 -78 -134 -124t-174 -46z" />
    <glyph glyph-name="ordfeminine" unicode="&#xaa;" horiz-adv-x="786" 
d="M385 1327q272 0 270 -207v-254q0 -87 4 -131h-79q-4 37 -5 70q-90 -86 -237 -86q-148 0 -198 89q-19 34 -19 87q0 90 70 149q71 59 219 60q75 0 159 -12v18q0 82 -51 111t-147 29t-174 -66l-50 59q29 27 91 55t147 29zM424 1032q-173 0 -204 -93q-7 -24 -7 -44
q0 -51 37 -77q66 -46 163 -19q98 28 140 89q20 30 20 64v70q-72 10 -149 10z" />
    <glyph glyph-name="guillemotleft" unicode="&#xab;" horiz-adv-x="921" 
d="M158 479l217 393h100l-215 -393l215 -393h-100zM461 479l217 393h100l-215 -393l215 -393h-100z" />
    <glyph glyph-name="logicalnot" unicode="&#xac;" horiz-adv-x="1116" 
d="M147 709h822v-336h-92v243h-730v93z" />
    <glyph glyph-name="uni00AD" unicode="&#xad;" horiz-adv-x="894" 
d="M178 623h563v-93h-563v93z" />
    <glyph glyph-name="registered" unicode="&#xae;" horiz-adv-x="1654" 
d="M115 684q0 300 205 506t509 209q150 1 280 -55q260 -111 376 -380q55 -130 55 -280t-55 -280t-151 -227t-225 -152q-130 -55 -281 -55q-150 0 -280 54q-262 112 -378 380q-55 130 -55 280zM827 55q265 0 437 182t172 445q0 129 -45 244q-91 232 -319 334q-112 49 -245 49
q-263 0 -436 -181q-174 -181 -174 -446q0 -129 45 -244q90 -231 321 -334q111 -49 244 -49zM854 684q76 0 116 42t40 114q0 139 -176 139h-140v-295h160zM694 608v-301h-88v748h250q125 -1 184 -63t60 -150q0 -164 -160 -224l184 -311h-100l-178 301h-152z" />
    <glyph glyph-name="macron" unicode="&#xaf;" horiz-adv-x="722" 
d="M123 1268h477v-86h-477v86z" />
    <glyph glyph-name="degree" unicode="&#xb0;" horiz-adv-x="661" 
d="M332 883q36 0 68 14q65 29 96 98q14 33 14 70q0 74 -53 126t-127 52t-126 -53t-52 -128t53 -127t127 -52zM63 1065q0 112 78 187t192 75q115 0 190 -76t75 -189t-76 -187t-193 -74t-191 76q-75 76 -75 188z" />
    <glyph glyph-name="plusminus" unicode="&#xb1;" horiz-adv-x="1116" 
d="M147 702h365v355h92v-355h365v-92h-361v-356h-94v356h-367v92zM147 92h822v-92h-822v92z" />
    <glyph glyph-name="twosuperior" unicode="&#xb2;" 
d="M100 688q0 69 59 121t151 105t125 84q67 61 68 124q1 62 -47 92t-110 31q-62 0 -114 -30t-82 -70l-62 55q36 45 104 86t146 41q136 0 199 -59t63 -146q0 -128 -153 -223q-41 -27 -93 -57t-102 -64q-50 -35 -51 -86h405v-82h-506v78z" />
    <glyph glyph-name="threesuperior" unicode="&#xb3;" 
d="M298 666q95 0 151 40q55 40 55 112t-46 106q-46 35 -104 36q-59 1 -94 -10l-24 47l219 240h-318v70h430v-58l-217 -227q16 4 37 4q95 0 151 -61t56 -153t-77 -158q-77 -64 -204 -64t-227 63l45 68q72 -55 167 -55z" />
    <glyph glyph-name="acute" unicode="&#xb4;" horiz-adv-x="499" 
d="M256 1366h113l-154 -262h-86z" />
    <glyph glyph-name="mu" unicode="&#xb5;" horiz-adv-x="1081" 
d="M848 197q-114 -222 -366 -222q-86 0 -148 24q-61 24 -109 81v-490h-94v1352h94v-522q0 -164 37 -236t96 -98q58 -26 144 -25q163 0 259 132q81 110 83 264v485h92v-859q0 -37 4 -83h-86q-6 68 -6 112v85z" />
    <glyph glyph-name="paragraph" unicode="&#xb6;" horiz-adv-x="1030" 
d="M578 528v-778h-97v785q51 -7 97 -7zM758 1366h96v-1616h-96v1616zM578 647q-313 0 -422 188q-41 69 -41 171q0 188 147 281q124 79 316 79v-719z" />
    <glyph glyph-name="periodcentered" unicode="&#xb7;" horiz-adv-x="425" 
d="M145 733h140v-143h-140v143z" />
    <glyph glyph-name="cedilla" unicode="&#xb8;" horiz-adv-x="694" 
d="M465 -274q0 88 -129 88q-69 0 -160 -31l12 72q25 8 61 19t98 11t99 -14q105 -40 105 -133q0 -94 -67 -138t-155 -44q-87 0 -127 13t-63 23l17 70q81 -33 155 -34t114 25t40 73z" />
    <glyph glyph-name="onesuperior" unicode="&#xb9;" 
d="M473 1307v-697h-90v607l-213 -103l-33 68l258 125h78z" />
    <glyph glyph-name="ordmasculine" unicode="&#xba;" horiz-adv-x="792" 
d="M397 795q111 0 167 68t58 158q1 91 -58 159q-59 67 -168 67q-110 0 -168 -67t-58 -158t58 -159t169 -68zM173 1240q89 89 223 88t224 -89q89 -88 89 -215t-87 -218t-226 -90t-226 90q-86 89 -86 217t89 217z" />
    <glyph glyph-name="guillemotright" unicode="&#xbb;" horiz-adv-x="921" 
d="M383 479l-215 393h100l217 -393l-217 -393h-100zM686 479l-215 393h100l217 -393l-217 -393h-100z" />
    <glyph glyph-name="onequarter" unicode="&#xbc;" horiz-adv-x="1720" 
d="M416 1307v-697h-90v607l-213 -103l-33 68l258 125h78zM1198 1290h105l-832 -1290h-104zM1432 231v367l-302 -367h302zM1513 698v-467h89v-73h-89v-154h-81v154h-398v71l387 469h92z" />
    <glyph glyph-name="onehalf" unicode="&#xbd;" horiz-adv-x="1720" 
d="M436 1307v-697h-90v607l-213 -103l-33 68l258 125h78zM1139 1290h104l-831 -1290h-105zM1075 80q0 106 207 223q101 63 132 90q64 57 64 120q1 63 -47 93q-49 30 -111 31q-62 0 -114 -30t-82 -70l-61 55q35 45 103 86t146 41q78 1 126 -17q138 -51 137 -184
q0 -133 -153 -227q-42 -27 -94 -57t-102 -64q-50 -35 -50 -86h405v-82h-506v78z" />
    <glyph glyph-name="threequarters" unicode="&#xbe;" horiz-adv-x="1720" 
d="M304 666q95 0 151 40q55 40 55 109q0 141 -166 146q-43 0 -78 -11l-24 47l219 240h-318v70h430v-58l-217 -227q16 4 37 4q95 0 151 -61t56 -153t-77 -158q-77 -64 -203 -64t-228 63l45 68q72 -55 167 -55zM1243 1290h105l-832 -1290h-104zM1456 231v367l-301 -367h301z
M1538 698v-467h88v-73h-88v-154h-82v154h-397v71l387 469h92z" />
    <glyph glyph-name="questiondown" unicode="&#xbf;" horiz-adv-x="1015" 
d="M682 809h-129v133h129v-133zM664 524q0 -190 -151 -312q-42 -34 -108 -82t-100 -90q-63 -80 -63 -184t89 -162t215 -58t208 40q82 41 151 125l66 -63q-63 -78 -167 -136t-226 -58q-318 -1 -409 194q-28 60 -28 126q0 166 150 284q47 38 120 92t103 98q59 85 59 197v67h91
v-78z" />
    <glyph glyph-name="Agrave" unicode="&#xc0;" horiz-adv-x="1298" 
d="M930 532l-285 709l-285 -709h570zM600 1366h98l559 -1366h-112l-178 440h-643l-177 -440h-106zM455 1774h125l153 -289h-90z" />
    <glyph glyph-name="Aacute" unicode="&#xc1;" horiz-adv-x="1298" 
d="M930 532l-285 709l-285 -709h570zM600 1366h98l559 -1366h-112l-178 440h-643l-177 -440h-106zM723 1774h131l-192 -289h-91z" />
    <glyph glyph-name="Acircumflex" unicode="&#xc2;" horiz-adv-x="1298" 
d="M930 532l-285 709l-285 -709h570zM600 1366h98l559 -1366h-112l-178 440h-643l-177 -440h-106zM590 1774h108l232 -289h-107l-182 221l-182 -221h-109z" />
    <glyph glyph-name="Atilde" unicode="&#xc3;" horiz-adv-x="1298" 
d="M930 532l-285 709l-285 -709h570zM600 1366h98l559 -1366h-112l-178 440h-643l-177 -440h-106zM784 1624q74 0 152 76l57 -62q-93 -102 -209 -102q-69 0 -146 48q-30 16 -58 32t-66 16q-80 0 -158 -76l-51 60q96 106 209 104q69 0 149 -48q31 -16 59 -32t62 -16z" />
    <glyph glyph-name="Adieresis" unicode="&#xc4;" horiz-adv-x="1298" 
d="M930 532l-285 709l-285 -709h570zM600 1366h98l559 -1366h-112l-178 440h-643l-177 -440h-106zM412 1698h135v-142h-135v142zM752 1698h135v-142h-135v142z" />
    <glyph glyph-name="Aring" unicode="&#xc5;" horiz-adv-x="1298" 
d="M646 1366q58 0 98 40t40 100t-40 98t-96 38t-95 -38t-39 -98q0 -58 37 -99t95 -41zM930 532l-285 709l-285 -709h570zM434 1515q0 83 62 143t152 60q92 0 154 -59t62 -143t-40 -138q-40 -53 -101 -75l534 -1303h-112l-178 440h-643l-177 -440h-106l532 1303
q-61 23 -100 75t-39 137z" />
    <glyph glyph-name="AE" unicode="&#xc6;" horiz-adv-x="1945" 
d="M981 492v788l-522 -788h522zM1800 1366v-92h-721v-516h563v-92h-563v-574h774v-92h-872v399h-584l-264 -399h-113l912 1366h868z" />
    <glyph glyph-name="Ccedilla" unicode="&#xc7;" horiz-adv-x="1376" 
d="M761 -33q-134 1 -256 55t-209 150q-181 200 -181 508q0 309 183 513t476 206q206 0 358 -110q89 -65 140 -150l-74 -52q-12 17 -40 53t-78 72q-129 94 -281 95q-152 -1 -255 -49q-207 -97 -285 -329q-38 -114 -38 -245q0 -268 151 -446t412 -179q164 0 292 95
q71 52 122 125l74 -52q-92 -154 -288 -227q-88 -33 -223 -33zM731 -362q160 0 160 92q0 80 -133 80q-77 0 -168 -31l14 82q167 54 274 16q73 -27 98 -89q11 -28 11 -54q0 -86 -71 -132t-172 -46t-191 36l16 80q82 -34 162 -34z" />
    <glyph glyph-name="Egrave" unicode="&#xc8;" horiz-adv-x="1140" 
d="M176 1366h819v-92h-721v-516h564v-92h-564v-574h775v-92h-873v1366zM422 1774h125l153 -289h-90z" />
    <glyph glyph-name="Eacute" unicode="&#xc9;" horiz-adv-x="1140" 
d="M176 1366h819v-92h-721v-516h564v-92h-564v-574h775v-92h-873v1366zM666 1774h131l-193 -289h-90z" />
    <glyph glyph-name="Ecircumflex" unicode="&#xca;" horiz-adv-x="1140" 
d="M176 1366h819v-92h-721v-516h564v-92h-564v-574h775v-92h-873v1366zM541 1774h108l232 -289h-107l-182 221l-182 -221h-109z" />
    <glyph glyph-name="Edieresis" unicode="&#xcb;" horiz-adv-x="1140" 
d="M176 1366h819v-92h-721v-516h564v-92h-564v-574h775v-92h-873v1366zM348 1698h135v-142h-135v142zM688 1698h135v-142h-135v142z" />
    <glyph glyph-name="Igrave" unicode="&#xcc;" horiz-adv-x="450" 
d="M176 1366h98v-1366h-98v1366zM14 1774h125l154 -289h-90z" />
    <glyph glyph-name="Iacute" unicode="&#xcd;" horiz-adv-x="450" 
d="M176 1366h98v-1366h-98v1366zM317 1774h132l-193 -289h-90z" />
    <glyph glyph-name="Icircumflex" unicode="&#xce;" horiz-adv-x="450" 
d="M176 1366h98v-1366h-98v1366zM180 1774h109l231 -289h-106l-183 221l-182 -221h-108z" />
    <glyph glyph-name="Idieresis" unicode="&#xcf;" horiz-adv-x="450" 
d="M176 1366h98v-1366h-98v1366zM-10 1698h135v-142h-135v142zM330 1698h135v-142h-135v142z" />
    <glyph glyph-name="Eth" unicode="&#xd0;" horiz-adv-x="1456" 
d="M598 92q299 0 469 150t170 442t-172 441t-483 149h-279v-526h391v-86h-391v-570h295zM205 662h-164v86h164v618h373q541 0 707 -375q56 -129 56 -307q0 -344 -214 -520q-197 -164 -549 -164h-373v662z" />
    <glyph glyph-name="Ntilde" unicode="&#xd1;" horiz-adv-x="1427" 
d="M176 1366h103l876 -1219v1219h96v-1366h-102l-877 1202v-1202h-96v1366zM852 1624q74 0 152 76l57 -62q-93 -102 -209 -102q-69 0 -146 48q-30 16 -59 32t-65 16q-80 0 -158 -76l-51 60q96 106 209 104q71 0 148 -48q30 -16 58 -32t64 -16z" />
    <glyph glyph-name="Ograve" unicode="&#xd2;" horiz-adv-x="1585" 
d="M1366 682q0 268 -159 446q-159 177 -414 178q-254 1 -414 -178q-160 -180 -160 -446t159 -444q159 -179 415 -179q129 1 235 49q212 97 297 331q41 114 41 243zM793 -33q-147 -1 -271 55t-215 152q-192 205 -192 508q0 150 51 281t141 228q191 206 486 208q147 1 271 -55
t214 -153t141 -228t51 -282t-51 -281q-104 -266 -355 -377q-124 -56 -271 -56zM612 1774h125l154 -289h-90z" />
    <glyph glyph-name="Oacute" unicode="&#xd3;" horiz-adv-x="1585" 
d="M1366 682q0 268 -159 446q-159 177 -414 178q-254 1 -414 -178q-160 -180 -160 -446t159 -444q159 -179 415 -179q129 1 235 49q212 97 297 331q41 114 41 243zM793 -33q-147 -1 -271 55t-215 152q-192 205 -192 508q0 150 51 281t141 228q191 206 486 208q147 1 271 -55
t214 -153t141 -228t51 -282t-51 -281q-104 -266 -355 -377q-124 -56 -271 -56zM887 1774h131l-193 -289h-90z" />
    <glyph glyph-name="Ocircumflex" unicode="&#xd4;" horiz-adv-x="1585" 
d="M1366 682q0 268 -159 446q-159 177 -414 178q-254 1 -414 -178q-160 -180 -160 -446t159 -444q159 -179 415 -179q129 1 235 49q212 97 297 331q41 114 41 243zM793 -33q-147 -1 -271 55t-215 152q-192 205 -192 508q0 150 51 281t141 228q191 206 486 208q147 1 271 -55
t214 -153t141 -228t51 -282t-51 -281q-104 -266 -355 -377q-124 -56 -271 -56zM733 1774h109l231 -289h-106l-183 221l-182 -221h-108z" />
    <glyph glyph-name="Otilde" unicode="&#xd5;" horiz-adv-x="1585" 
d="M1366 682q0 268 -159 446q-159 177 -414 178q-254 1 -414 -178q-160 -180 -160 -446t159 -444q159 -179 415 -179q129 1 235 49q212 97 297 331q41 114 41 243zM793 -33q-147 -1 -271 55t-215 152q-192 205 -192 508q0 150 51 281t141 228q191 206 486 208q147 1 271 -55
t214 -153t141 -228t51 -282t-51 -281q-104 -266 -355 -377q-124 -56 -271 -56zM932 1624q75 0 151 76l58 -62q-93 -102 -209 -102q-67 0 -147 48q-31 16 -59 32t-64 16q-80 0 -158 -76l-51 60q96 106 209 104q68 0 148 -48q30 -16 58 -32t64 -16z" />
    <glyph glyph-name="Odieresis" unicode="&#xd6;" horiz-adv-x="1585" 
d="M1366 682q0 268 -159 446q-159 177 -414 178q-254 1 -414 -178q-160 -180 -160 -446t159 -444q159 -179 415 -179q129 1 235 49q212 97 297 331q41 114 41 243zM793 -33q-147 -1 -271 55t-215 152q-192 205 -192 508q0 150 51 281t141 228q191 206 486 208q147 1 271 -55
t214 -153t141 -228t51 -282t-51 -281q-104 -266 -355 -377q-124 -56 -271 -56zM553 1698h135v-142h-135v142zM893 1698h135v-142h-135v142z" />
    <glyph glyph-name="multiply" unicode="&#xd7;" horiz-adv-x="1116" 
d="M494 655l-277 277l66 65l276 -276l275 276l65 -65l-276 -275l276 -276l-65 -66l-275 277l-276 -277l-66 66z" />
    <glyph glyph-name="Oslash" unicode="&#xd8;" horiz-adv-x="1585" 
d="M813 1307q-147 1 -253 -49q-214 -99 -298 -332q-41 -115 -41 -249q0 -282 176 -458l705 1000q-142 88 -289 88zM1368 682q0 147 -52 272t-147 211l-704 -1003q143 -103 330 -103q255 0 414 180t159 443zM117 674q0 310 192 517q192 206 486 208q193 0 360 -105l121 172
l74 -47l-125 -176q117 -99 183 -243t65 -307q0 -313 -193 -519q-193 -205 -485 -207q-213 0 -383 117l-131 -184l-74 47l135 192q-106 97 -166 237t-59 298z" />
    <glyph glyph-name="Ugrave" unicode="&#xd9;" horiz-adv-x="1376" 
d="M1210 545q0 -578 -522 -578q-407 0 -497 351q-26 105 -25 227v821h98v-770q0 -258 85 -385q101 -152 339 -152q344 0 406 322q18 98 18 215v770h98v-821zM522 1774h125l154 -289h-90z" />
    <glyph glyph-name="Uacute" unicode="&#xda;" horiz-adv-x="1376" 
d="M1210 545q0 -578 -522 -578q-407 0 -497 351q-26 105 -25 227v821h98v-770q0 -258 85 -385q101 -152 339 -152q344 0 406 322q18 98 18 215v770h98v-821zM739 1774h131l-192 -289h-90z" />
    <glyph glyph-name="Ucircumflex" unicode="&#xdb;" horiz-adv-x="1376" 
d="M1210 545q0 -578 -522 -578q-407 0 -497 351q-26 105 -25 227v821h98v-770q0 -258 85 -385q101 -152 339 -152q344 0 406 322q18 98 18 215v770h98v-821zM637 1774h108l232 -289h-107l-182 221l-182 -221h-109z" />
    <glyph glyph-name="Udieresis" unicode="&#xdc;" horiz-adv-x="1376" 
d="M1210 545q0 -578 -522 -578q-407 0 -497 351q-26 105 -25 227v821h98v-770q0 -258 85 -385q101 -152 339 -152q344 0 406 322q18 98 18 215v770h98v-821zM451 1698h135v-142h-135v142zM791 1698h135v-142h-135v142z" />
    <glyph glyph-name="Yacute" unicode="&#xdd;" horiz-adv-x="1105" 
d="M602 0h-98v627l-471 739h119l403 -643l403 643h115l-471 -739v-627zM643 1774h131l-192 -289h-90z" />
    <glyph glyph-name="Thorn" unicode="&#xde;" horiz-adv-x="1183" 
d="M625 401q340 -1 340 301t-340 302h-351v-603h351zM176 1366h98v-270h322q368 0 451 -238q25 -72 25 -156t-26 -156q-81 -238 -450 -237h-322v-309h-98v1366z" />
    <glyph glyph-name="germandbls" unicode="&#xdf;" horiz-adv-x="1140" 
d="M942 230q0 82 -34 122q-58 69 -198 107t-197 108q-34 43 -34 109q0 130 130 249q82 73 106 118t24 103t-50 112q-51 54 -153 54t-157 -25q-55 -26 -87 -72q-57 -82 -59 -248v-967h-92v979q0 223 111 330q91 88 270 90q139 0 225 -73q87 -73 87 -171q0 -97 -41 -155
t-91 -104t-90 -91q-41 -45 -41 -105t35 -92q35 -31 88 -51q54 -21 114 -39t114 -50q124 -74 122 -228q0 -117 -82 -197t-246 -80t-302 92l51 76q105 -82 235 -83t186 50q56 50 56 132z" />
    <glyph glyph-name="agrave" unicode="&#xe0;" horiz-adv-x="1007" 
d="M98 248q0 336 435 336q136 0 243 -21v53q0 217 -164 254q-53 12 -123 13q-175 0 -290 -99l-49 64q40 37 126 78t211 41q181 0 281 -78t100 -258v-517q0 -42 6 -114h-88q-4 36 -4 90v68q-124 -177 -352 -183q-223 0 -302 143q-30 54 -30 130zM536 506q-134 0 -196 -26
t-102 -74q-41 -48 -41 -150t68 -150q69 -47 157 -47q153 0 255 91q103 91 101 198v133q-108 25 -242 25zM352 1372h119l123 -262h-86z" />
    <glyph glyph-name="aacute" unicode="&#xe1;" horiz-adv-x="1007" 
d="M98 248q0 336 435 336q136 0 243 -21v53q0 217 -164 254q-53 12 -123 13q-175 0 -290 -99l-49 64q40 37 126 78t211 41q181 0 281 -78t100 -258v-517q0 -42 6 -114h-88q-4 36 -4 90v68q-124 -177 -352 -183q-223 0 -302 143q-30 54 -30 130zM536 506q-134 0 -196 -26
t-102 -74q-41 -48 -41 -150t68 -150q69 -47 157 -47q153 0 255 91q103 91 101 198v133q-108 25 -242 25zM557 1366h113l-154 -262h-86z" />
    <glyph glyph-name="acircumflex" unicode="&#xe2;" horiz-adv-x="1007" 
d="M98 248q0 336 435 336q136 0 243 -21v53q0 217 -164 254q-53 12 -123 13q-175 0 -290 -99l-49 64q40 37 126 78t211 41q181 0 281 -78t100 -258v-517q0 -42 6 -114h-88q-4 36 -4 90v68q-124 -177 -352 -183q-223 0 -302 143q-30 54 -30 130zM536 506q-134 0 -196 -26
t-102 -74q-41 -48 -41 -150t68 -150q69 -47 157 -47q153 0 255 91q103 91 101 198v133q-108 25 -242 25zM455 1366h90l188 -262h-98l-135 192l-135 -192h-99z" />
    <glyph glyph-name="atilde" unicode="&#xe3;" horiz-adv-x="1007" 
d="M98 248q0 336 435 336q136 0 243 -21v53q0 217 -164 254q-53 12 -123 13q-175 0 -290 -99l-49 64q40 37 126 78t211 41q181 0 281 -78t100 -258v-517q0 -42 6 -114h-88q-4 36 -4 90v68q-124 -177 -352 -183q-223 0 -302 143q-30 54 -30 130zM536 506q-134 0 -196 -26
t-102 -74q-41 -48 -41 -150t68 -150q69 -47 157 -47q153 0 255 91q103 91 101 198v133q-108 25 -242 25zM389 1313q66 0 142 -48q28 -17 55 -33t61 -15q67 0 144 77l47 -61q-87 -100 -199 -98q-68 0 -140 48q-28 17 -56 32t-62 16q-76 0 -143 -70l-48 51q88 101 199 101z
" />
    <glyph glyph-name="adieresis" unicode="&#xe4;" horiz-adv-x="1007" 
d="M98 248q0 336 435 336q136 0 243 -21v53q0 217 -164 254q-53 12 -123 13q-175 0 -290 -99l-49 64q40 37 126 78t211 41q181 0 281 -78t100 -258v-517q0 -42 6 -114h-88q-4 36 -4 90v68q-124 -177 -352 -183q-223 0 -302 143q-30 54 -30 130zM536 506q-134 0 -196 -26
t-102 -74q-41 -48 -41 -150t68 -150q69 -47 157 -47q153 0 255 91q103 91 101 198v133q-108 25 -242 25zM297 1286h123v-129h-123v129zM600 1286h123v-129h-123v129z" />
    <glyph glyph-name="aring" unicode="&#xe5;" horiz-adv-x="1007" 
d="M98 248q0 336 435 336q136 0 243 -21v53q0 217 -164 254q-53 12 -123 13q-175 0 -290 -99l-49 64q40 37 126 78t211 41q181 0 281 -78t100 -258v-517q0 -42 6 -114h-88q-4 36 -4 90v68q-124 -177 -352 -183q-223 0 -302 143q-30 54 -30 130zM536 506q-134 0 -196 -26
t-102 -74q-41 -48 -41 -150t68 -150q69 -47 157 -47q153 0 255 91q103 91 101 198v133q-108 25 -242 25zM377 1304q0 -56 37 -93t89 -37t89 36t37 94q0 56 -37 92t-90 36t-89 -36t-36 -92zM303 1304q0 87 57 142q56 55 142 55t143 -55t57 -142q0 -88 -57 -144t-142 -56
t-143 56q-57 57 -57 144z" />
    <glyph glyph-name="ae" unicode="&#xe6;" horiz-adv-x="1767" 
d="M1222 881q-148 0 -245 -101t-105 -248h701q-19 174 -111 262t-240 87zM524 477q-327 0 -327 -225q0 -102 68 -148q69 -45 156 -45q154 0 256 91q103 91 101 198v109q-136 20 -254 20zM496 967q288 0 354 -205q58 92 154 148t206 56q326 1 429 -290q34 -96 34 -223h-803
q4 -160 109 -276t259 -116q153 0 268 80q36 25 61 56l65 -56q-60 -78 -166 -122t-232 -44q-126 -1 -234 61t-166 173q-124 -187 -296 -222q-115 -23 -200 -5q-84 18 -131 49q-109 72 -109 221q0 216 225 280q77 23 170 23t159 -6t124 -10v77q0 217 -164 254q-53 12 -123 13
q-175 0 -290 -99l-49 64q40 37 126 78t220 41z" />
    <glyph glyph-name="ccedilla" unicode="&#xe7;" horiz-adv-x="1013" 
d="M94 471q0 212 135 354t351 142t348 -166l-70 -53q-102 133 -276 133t-283 -119t-107 -291q2 -171 110 -291q108 -119 265 -119q101 0 181 37t126 99l66 -58q-58 -71 -154 -117t-208 -46q-213 -1 -349 141q-135 142 -135 354zM686 -274q0 88 -129 88q-69 0 -160 -31l13 72
q24 8 60 19t98 11q153 0 193 -100q11 -29 11 -55q0 -86 -66 -130t-155 -44q-88 0 -128 13t-63 23l17 70q81 -33 155 -34t114 25t40 73z" />
    <glyph glyph-name="egrave" unicode="&#xe8;" horiz-adv-x="1093" 
d="M549 881q-147 0 -246 -104q-98 -105 -104 -251h700q-19 174 -111 264t-239 91zM579 -25q-216 0 -351 140q-134 140 -134 351t127 356t327 145t327 -138q126 -138 124 -383h-802q4 -163 109 -274t258 -111q154 0 269 80q36 25 60 56l65 -56q-61 -78 -166 -122t-213 -44z
M399 1372h119l123 -262h-86z" />
    <glyph glyph-name="eacute" unicode="&#xe9;" horiz-adv-x="1093" 
d="M549 881q-147 0 -246 -104q-98 -105 -104 -251h700q-19 174 -111 264t-239 91zM579 -25q-216 0 -351 140q-134 140 -134 351t127 356t327 145t327 -138q126 -138 124 -383h-802q4 -163 109 -274t258 -111q154 0 269 80q36 25 60 56l65 -56q-61 -78 -166 -122t-213 -44z
M618 1366h113l-153 -262h-86z" />
    <glyph glyph-name="ecircumflex" unicode="&#xea;" horiz-adv-x="1093" 
d="M549 881q-147 0 -246 -104q-98 -105 -104 -251h700q-19 174 -111 264t-239 91zM579 -25q-216 0 -351 140q-134 140 -134 351t127 356t327 145t327 -138q126 -138 124 -383h-802q4 -163 109 -274t258 -111q154 0 269 80q36 25 60 56l65 -56q-61 -78 -166 -122t-213 -44z
M504 1366h90l188 -262h-98l-135 192l-135 -192h-99z" />
    <glyph glyph-name="edieresis" unicode="&#xeb;" horiz-adv-x="1093" 
d="M549 881q-147 0 -246 -104q-98 -105 -104 -251h700q-19 174 -111 264t-239 91zM579 -25q-216 0 -351 140q-134 140 -134 351t127 356t327 145t327 -138q126 -138 124 -383h-802q4 -163 109 -274t258 -111q154 0 269 80q36 25 60 56l65 -56q-61 -78 -166 -122t-213 -44z
M332 1286h123v-129h-123v129zM635 1286h123v-129h-123v129z" />
    <glyph glyph-name="igrave" unicode="&#xec;" horiz-adv-x="382" 
d="M145 942h93v-942h-93v942zM8 1372h119l123 -262h-86z" />
    <glyph glyph-name="iacute" unicode="&#xed;" horiz-adv-x="382" 
d="M145 942h93v-942h-93v942zM260 1366h113l-154 -262h-86z" />
    <glyph glyph-name="icircumflex" unicode="&#xee;" horiz-adv-x="382" 
d="M145 942h93v-942h-93v942zM147 1366h91l188 -262h-98l-135 192l-136 -192h-98z" />
    <glyph glyph-name="idieresis" unicode="&#xef;" horiz-adv-x="382" 
d="M145 942h93v-942h-93v942zM-20 1286h122v-129h-122v129zM283 1286h123v-129h-123v129z" />
    <glyph glyph-name="eth" unicode="&#xf0;" horiz-adv-x="1153" 
d="M578 825q-164 0 -274 -108q-111 -108 -110 -278t108 -275t265 -105t276 124t118 368q0 51 -11 147q-23 18 -75 53t-136 55q-83 19 -161 19zM1059 539q0 -270 -141 -420t-346 -150q-206 0 -342 126t-136 335t138 347t350 136q122 -1 204 -33t140 -69q-79 279 -328 414
l-127 -160l-61 47l116 148q-111 41 -219 47l10 84q139 -8 267 -62l116 148l62 -47l-107 -134q292 -161 377 -510q27 -111 27 -247z" />
    <glyph glyph-name="ntilde" unicode="&#xf1;" horiz-adv-x="1093" 
d="M233 828v-83q75 145 226 199q61 23 151 23q182 0 265 -105q84 -105 86 -309v-553h-93v522q0 293 -160 342q-52 16 -131 16t-145 -36q-66 -37 -108 -94q-88 -118 -86 -265v-485h-93v859q0 37 -4 83h86q6 -70 6 -114zM422 1313q66 0 142 -48q28 -17 54 -33t62 -15
q68 0 143 77l47 -61q-87 -100 -198 -98q-66 0 -141 48q-27 17 -55 32t-62 16q-76 0 -144 -70l-47 51q88 101 199 101z" />
    <glyph glyph-name="ograve" unicode="&#xf2;" horiz-adv-x="1159" 
d="M969 467q0 168 -113 292t-276 124t-277 -120q-113 -120 -113 -288t113 -292t278 -124q162 0 275 120t113 288zM580 967q199 0 342 -145t143 -350t-142 -351q-144 -146 -344 -146t-343 146q-142 146 -142 351q0 206 143 350q144 144 343 145zM418 1372h119l122 -262h-86z
" />
    <glyph glyph-name="oacute" unicode="&#xf3;" horiz-adv-x="1159" 
d="M969 467q0 168 -113 292t-276 124t-277 -120q-113 -120 -113 -288t113 -292t278 -124q162 0 275 120t113 288zM580 967q199 0 342 -145t143 -350t-142 -351q-144 -146 -344 -146t-343 146q-142 146 -142 351q0 206 143 350q144 144 343 145zM651 1366h113l-154 -262h-86z
" />
    <glyph glyph-name="ocircumflex" unicode="&#xf4;" horiz-adv-x="1159" 
d="M969 467q0 168 -113 292t-276 124t-277 -120q-113 -120 -113 -288t113 -292t278 -124q162 0 275 120t113 288zM580 967q199 0 342 -145t143 -350t-142 -351q-144 -146 -344 -146t-343 146q-142 146 -142 351q0 206 143 350q144 144 343 145zM530 1366h91l188 -262h-98
l-136 192l-135 -192h-98z" />
    <glyph glyph-name="otilde" unicode="&#xf5;" horiz-adv-x="1159" 
d="M969 467q0 168 -113 292t-276 124t-277 -120q-113 -120 -113 -288t113 -292t278 -124q162 0 275 120t113 288zM580 967q199 0 342 -145t143 -350t-142 -351q-144 -146 -344 -146t-343 146q-142 146 -142 351q0 206 143 350q144 144 343 145zM457 1313q66 0 142 -48
q29 -17 55 -33t61 -15q66 0 143 77l47 -61q-87 -100 -198 -98q-66 0 -141 48q-28 17 -56 32t-61 16q-76 0 -144 -70l-47 51q88 101 199 101z" />
    <glyph glyph-name="odieresis" unicode="&#xf6;" horiz-adv-x="1159" 
d="M969 467q0 168 -113 292t-276 124t-277 -120q-113 -120 -113 -288t113 -292t278 -124q162 0 275 120t113 288zM580 967q199 0 342 -145t143 -350t-142 -351q-144 -146 -344 -146t-343 146q-142 146 -142 351q0 206 143 350q144 144 343 145zM365 1286h122v-129h-122v129z
M668 1286h123v-129h-123v129z" />
    <glyph glyph-name="divide" unicode="&#xf7;" horiz-adv-x="1116" 
d="M147 700h822v-92h-822v92zM496 410h125v-125h-125v125zM496 1024h125v-125h-125v125z" />
    <glyph glyph-name="oslash" unicode="&#xf8;" horiz-adv-x="1159" 
d="M190 467q0 -176 127 -299l461 655q-90 58 -186 59q-175 2 -288 -118q-114 -121 -114 -297zM969 474q0 175 -129 300l-459 -655q86 -58 183 -59q177 -2 291 118q114 121 114 296zM264 92q-170 153 -170 369q0 217 143 361t343 145q136 0 249 -72l103 147l67 -43l-106 -149
q172 -150 172 -367q0 -216 -142 -362q-144 -146 -343 -146q-139 0 -250 70l-101 -141l-67 43z" />
    <glyph glyph-name="ugrave" unicode="&#xf9;" horiz-adv-x="1081" 
d="M848 197q-114 -222 -370 -222q-182 0 -268 112q-75 96 -77 302v553h92v-522q0 -293 156 -342q51 -16 129 -16t144 36q126 71 169 221q20 70 21 138v485h92v-859q0 -37 4 -83h-86q-6 68 -6 112v85zM373 1372h119l122 -262h-86z" />
    <glyph glyph-name="uacute" unicode="&#xfa;" horiz-adv-x="1081" 
d="M848 197q-114 -222 -370 -222q-182 0 -268 112q-75 96 -77 302v553h92v-522q0 -293 156 -342q51 -16 129 -16t144 36q126 71 169 221q20 70 21 138v485h92v-859q0 -37 4 -83h-86q-6 68 -6 112v85zM600 1366h113l-154 -262h-86z" />
    <glyph glyph-name="ucircumflex" unicode="&#xfb;" horiz-adv-x="1081" 
d="M848 197q-114 -222 -370 -222q-182 0 -268 112q-75 96 -77 302v553h92v-522q0 -293 156 -342q51 -16 129 -16t144 36q126 71 169 221q20 70 21 138v485h92v-859q0 -37 4 -83h-86q-6 68 -6 112v85zM492 1366h90l188 -262h-98l-135 192l-136 -192h-98z" />
    <glyph glyph-name="udieresis" unicode="&#xfc;" horiz-adv-x="1081" 
d="M848 197q-114 -222 -370 -222q-182 0 -268 112q-75 96 -77 302v553h92v-522q0 -293 156 -342q51 -16 129 -16t144 36q126 71 169 221q20 70 21 138v485h92v-859q0 -37 4 -83h-86q-6 68 -6 112v85zM317 1286h123v-129h-123v129zM621 1286h122v-129h-122v129z" />
    <glyph glyph-name="yacute" unicode="&#xfd;" horiz-adv-x="946" 
d="M208 -352q68 0 102 43t65 123l78 198l-420 930h104l363 -817l313 817h100l-462 -1165q-34 -89 -70 -128q-75 -84 -172 -84q-97 1 -164 64l47 66q48 -47 116 -47zM530 1366h113l-154 -262h-86z" />
    <glyph glyph-name="thorn" unicode="&#xfe;" horiz-adv-x="1101" 
d="M589 881q-132 0 -216 -69q-117 -96 -132 -249q-5 -51 -5 -104v-295l38 -28q24 -18 88 -45q63 -28 155 -29q177 -2 285 107q109 109 107 296q1 286 -179 382q-64 34 -141 34zM236 1364v-596q40 72 90 111q112 88 239 88q329 0 417 -304q26 -91 26 -200q0 -218 -136 -353
t-342 -135q-100 0 -172 28t-122 56v-469h-91l-2 1774h93z" />
    <glyph glyph-name="ydieresis" unicode="&#xff;" horiz-adv-x="946" 
d="M208 -352q68 0 102 43t65 123l78 198l-420 930h104l363 -817l313 817h100l-462 -1165q-34 -89 -70 -128q-75 -84 -172 -84q-97 1 -164 64l47 66q48 -47 116 -47zM262 1286h123v-129h-123v129zM565 1286h123v-129h-123v129z" />
    <glyph glyph-name="Amacron" unicode="&#x100;" horiz-adv-x="1298" 
d="M930 532l-285 709l-285 -709h570zM600 1366h98l559 -1366h-112l-178 440h-643l-177 -440h-106zM326 1667h647v-86h-647v86z" />
    <glyph glyph-name="amacron" unicode="&#x101;" horiz-adv-x="1007" 
d="M98 248q0 336 435 336q136 0 243 -21v53q0 217 -164 254q-53 12 -123 13q-175 0 -290 -99l-49 64q40 37 126 78t211 41q181 0 281 -78t100 -258v-517q0 -42 6 -114h-88q-4 36 -4 90v68q-124 -177 -352 -183q-223 0 -302 143q-30 54 -30 130zM536 506q-134 0 -196 -26
t-102 -74q-41 -48 -41 -150t68 -150q69 -47 157 -47q153 0 255 91q103 91 101 198v133q-108 25 -242 25zM266 1268h477v-86h-477v86z" />
    <glyph glyph-name="Abreve" unicode="&#x102;" horiz-adv-x="1298" 
d="M930 532l-285 709l-285 -709h570zM600 1366h98l559 -1366h-112l-178 440h-643l-177 -440h-106zM651 1585q82 0 128 39t50 98h89q-4 -92 -73 -154t-194 -62q-126 -1 -195 64t-73 152h92q4 -59 49 -98t127 -39z" />
    <glyph glyph-name="abreve" unicode="&#x103;" horiz-adv-x="1007" 
d="M98 248q0 336 435 336q136 0 243 -21v53q0 217 -164 254q-53 12 -123 13q-175 0 -290 -99l-49 64q40 37 126 78t211 41q181 0 281 -78t100 -258v-517q0 -42 6 -114h-88q-4 36 -4 90v68q-124 -177 -352 -183q-223 0 -302 143q-30 54 -30 130zM536 506q-134 0 -196 -26
t-102 -74q-41 -48 -41 -150t68 -150q69 -47 157 -47q153 0 255 91q103 91 101 198v133q-108 25 -242 25zM358 1327q0 -59 43 -100t115 -41t116 41t44 100h76q0 -87 -62 -152t-175 -65t-174 66q-60 66 -60 151h77z" />
    <glyph glyph-name="Aogonek" unicode="&#x104;" horiz-adv-x="1298" 
d="M930 532l-285 709l-285 -709h570zM991 -266q0 96 100 207q28 31 54 59l-178 440h-643l-177 -440h-106l559 1366h98l559 -1366q-71 -59 -115 -125t-44 -114q0 -91 94 -91q58 0 137 51l41 -73q-86 -64 -183 -65q-196 -2 -196 151z" />
    <glyph glyph-name="aogonek" unicode="&#x105;" horiz-adv-x="1007" 
d="M536 506q-134 0 -196 -26t-102 -74q-41 -48 -41 -150t67 -150q68 -47 155 -47q156 0 258 91q103 91 101 198v133q-108 25 -242 25zM731 -238q0 -94 113 -94q57 0 123 47l34 -69q-79 -60 -168 -61q-90 -1 -142 39t-52 113t45 147t102 126q0 6 -2 39t-2 109
q-124 -177 -358 -183q-217 0 -296 143q-30 54 -30 130q0 336 435 336q136 0 243 -21v53q0 217 -164 254q-53 12 -123 13q-175 0 -290 -99l-49 64q40 37 126 78t211 41q181 0 281 -78t100 -258v-434q0 -158 6 -197q-63 -59 -103 -124t-40 -114z" />
    <glyph glyph-name="Cacute" unicode="&#x106;" horiz-adv-x="1376" 
d="M761 -33q-134 1 -256 55t-209 150q-181 200 -181 508q0 309 183 513t476 206q206 0 358 -110q89 -65 140 -150l-74 -52q-12 17 -40 53t-78 72q-129 94 -281 95q-152 -1 -255 -49q-207 -97 -285 -329q-38 -114 -38 -245q0 -268 151 -446t412 -179q164 0 292 95
q71 52 122 125l74 -52q-92 -154 -288 -227q-88 -33 -223 -33zM834 1774h131l-193 -289h-90z" />
    <glyph glyph-name="cacute" unicode="&#x107;" horiz-adv-x="1013" 
d="M94 471q0 212 135 354t351 142t348 -166l-70 -53q-102 133 -276 133t-283 -119t-107 -291q2 -171 110 -291q108 -119 265 -119q101 0 181 37t126 99l66 -58q-58 -71 -154 -117t-208 -46q-213 -1 -349 141q-135 142 -135 354zM635 1366h113l-154 -262h-86z" />
    <glyph glyph-name="Ccircumflex" unicode="&#x108;" horiz-adv-x="1376" 
d="M761 -33q-134 1 -256 55t-209 150q-181 200 -181 508q0 309 183 513t476 206q206 0 358 -110q89 -65 140 -150l-74 -52q-12 17 -40 53t-78 72q-129 94 -281 95q-152 -1 -255 -49q-207 -97 -285 -329q-38 -114 -38 -245q0 -268 151 -446t412 -179q164 0 292 95
q71 52 122 125l74 -52q-92 -154 -288 -227q-88 -33 -223 -33zM715 1774h108l232 -289h-107l-182 221l-182 -221h-109z" />
    <glyph glyph-name="ccircumflex" unicode="&#x109;" horiz-adv-x="1013" 
d="M94 471q0 212 135 354t351 142t348 -166l-70 -53q-102 133 -276 133t-283 -119t-107 -291q2 -171 110 -291q108 -119 265 -119q101 0 181 37t126 99l66 -58q-58 -71 -154 -117t-208 -46q-213 -1 -349 141q-135 142 -135 354zM516 1366h90l189 -262h-99l-135 192
l-135 -192h-98z" />
    <glyph glyph-name="Cdotaccent" unicode="&#x10a;" horiz-adv-x="1376" 
d="M761 -33q-134 1 -256 55t-209 150q-181 200 -181 508q0 309 183 513t476 206q206 0 358 -110q89 -65 140 -150l-74 -52q-12 17 -40 53t-78 72q-129 94 -281 95q-152 -1 -255 -49q-207 -97 -285 -329q-38 -114 -38 -245q0 -268 151 -446t412 -179q164 0 292 95
q71 52 122 125l74 -52q-92 -154 -288 -227q-88 -33 -223 -33zM688 1702h148v-146h-148v146z" />
    <glyph glyph-name="cdotaccent" unicode="&#x10b;" horiz-adv-x="1013" 
d="M94 471q0 212 135 354t351 142t348 -166l-70 -53q-102 133 -276 133t-283 -119t-107 -291q2 -171 110 -291q108 -119 265 -119q101 0 181 37t126 99l66 -58q-58 -71 -154 -117t-208 -46q-213 -1 -349 141q-135 142 -135 354zM492 1290h129v-135h-129v135z" />
    <glyph glyph-name="Ccaron" unicode="&#x10c;" horiz-adv-x="1376" 
d="M761 -33q-134 1 -256 55t-209 150q-181 200 -181 508q0 309 183 513t476 206q206 0 358 -110q89 -65 140 -150l-74 -52q-12 17 -40 53t-78 72q-129 94 -281 95q-152 -1 -255 -49q-207 -97 -285 -329q-38 -114 -38 -245q0 -268 151 -446t412 -179q164 0 292 95
q71 52 122 125l74 -52q-92 -154 -288 -227q-88 -33 -223 -33zM479 1774h107l182 -222l182 222h109l-240 -289h-108z" />
    <glyph glyph-name="ccaron" unicode="&#x10d;" horiz-adv-x="1013" 
d="M94 471q0 212 135 354t351 142t348 -166l-70 -53q-102 133 -276 133t-283 -119t-107 -291q2 -171 110 -291q108 -119 265 -119q101 0 181 37t126 99l66 -58q-58 -71 -154 -117t-208 -46q-213 -1 -349 141q-135 142 -135 354zM326 1366h98l135 -192l135 192h99l-189 -262
h-90z" />
    <glyph glyph-name="Dcaron" unicode="&#x10e;" horiz-adv-x="1427" 
d="M569 92q460 0 594 331q45 111 45 261q0 291 -172 441q-172 149 -483 149h-279v-1182h295zM176 1366h373q350 0 556 -169t207 -512t-205 -514t-558 -171h-373v1366zM317 1774h107l182 -222l182 222h109l-240 -289h-108z" />
    <glyph glyph-name="dcaron" unicode="&#x10f;" horiz-adv-x="1216" 
d="M525 61q89 0 153 32q121 61 168 178q20 52 20 94v411q-110 103 -279 104q-170 1 -283 -106t-111 -313q0 -274 180 -367q63 -33 152 -33zM870 0q-4 54 -4 106v58q-57 -98 -190 -159q-66 -30 -166 -30t-180 38q-236 113 -236 456q0 222 136 360t366 138q123 0 270 -90v489
h90v-1246q0 -80 5 -120h-91zM1120 1366h97l-23 -365h-74v365z" />
    <glyph glyph-name="Dcroat" unicode="&#x110;" horiz-adv-x="1456" 
d="M598 92q299 0 469 150t170 442t-172 441t-483 149h-279v-526h391v-86h-391v-570h295zM205 662h-164v86h164v618h373q541 0 707 -375q56 -129 56 -307q0 -344 -214 -520q-197 -164 -549 -164h-373v662z" />
    <glyph glyph-name="dcroat" unicode="&#x111;" horiz-adv-x="1120" 
d="M528 61q92 0 157 37q123 70 163 202q18 58 18 101v375q-110 103 -279 104q-170 1 -283 -106t-111 -313q0 -274 180 -367q63 -33 155 -33zM870 0q-4 50 -4 100v56q-59 -96 -190 -153q-66 -28 -166 -28t-180 38q-236 113 -236 456q0 222 136 360t366 138q123 0 270 -90v229
h-366v82h366v178h90v-178h164v-82h-164v-986q0 -80 5 -120h-91z" />
    <glyph glyph-name="Emacron" unicode="&#x112;" horiz-adv-x="1140" 
d="M176 1366h819v-92h-721v-516h564v-92h-564v-574h775v-92h-873v1366zM266 1667h647v-86h-647v86z" />
    <glyph glyph-name="emacron" unicode="&#x113;" horiz-adv-x="1093" 
d="M549 881q-147 0 -246 -104q-98 -105 -104 -251h700q-19 174 -111 264t-239 91zM579 -25q-216 0 -351 140q-134 140 -134 351t127 356t327 145t327 -138q126 -138 124 -383h-802q4 -163 109 -274t258 -111q154 0 269 80q36 25 60 56l65 -56q-61 -78 -166 -122t-213 -44z
M315 1268h478v-86h-478v86z" />
    <glyph glyph-name="Ebreve" unicode="&#x114;" horiz-adv-x="1140" 
d="M176 1366h819v-92h-721v-516h564v-92h-564v-574h775v-92h-873v1366zM592 1585q82 0 128 39t50 98h88q-7 -145 -151 -198q-49 -18 -115 -18t-116 18q-96 35 -133 118q-17 39 -19 80h92q4 -59 49 -98t127 -39z" />
    <glyph glyph-name="ebreve" unicode="&#x115;" horiz-adv-x="1093" 
d="M549 881q-147 0 -246 -104q-98 -105 -104 -251h700q-19 174 -111 264t-239 91zM579 -25q-216 0 -351 140q-134 140 -134 351t127 356t327 145t327 -138q126 -138 124 -383h-802q4 -163 109 -274t258 -111q154 0 269 80q36 25 60 56l65 -56q-61 -78 -166 -122t-213 -44z
M395 1327q0 -59 43 -100t115 -41t116 41t44 100h75q0 -88 -61 -152q-61 -65 -175 -65q-113 0 -173 65t-62 152h78z" />
    <glyph glyph-name="Edotaccent" unicode="&#x116;" horiz-adv-x="1140" 
d="M176 1366h819v-92h-721v-516h564v-92h-564v-574h775v-92h-873v1366zM516 1702h148v-146h-148v146z" />
    <glyph glyph-name="edotaccent" unicode="&#x117;" horiz-adv-x="1093" 
d="M549 881q-147 0 -246 -104q-98 -105 -104 -251h700q-19 174 -111 264t-239 91zM579 -25q-216 0 -351 140q-134 140 -134 351t127 356t327 145t327 -138q126 -138 124 -383h-802q4 -163 109 -274t258 -111q154 0 269 80q36 25 60 56l65 -56q-61 -78 -166 -122t-213 -44z
M494 1290h129v-135h-129v135z" />
    <glyph glyph-name="Eogonek" unicode="&#x118;" horiz-adv-x="1140" 
d="M670 -266q0 93 99 207q28 31 54 59h-647v1366h819v-92h-721v-516h564v-92h-564v-574h775v-92h-113q-70 -59 -115 -125t-45 -114q0 -91 94 -91q57 0 138 51l41 -73q-85 -64 -183 -65q-196 -2 -196 151z" />
    <glyph glyph-name="eogonek" unicode="&#x119;" horiz-adv-x="1093" 
d="M549 881q-147 0 -246 -104q-98 -105 -104 -251h700q-19 174 -111 264t-239 91zM588 -242q0 -90 113 -90q58 0 122 47l35 -69q-79 -60 -168 -61q-90 -1 -142 39t-52 110t35 130q36 60 85 113q-14 -2 -22 -2h-19q-212 0 -347 140q-134 140 -134 351t127 356t327 145
t327 -138q126 -138 124 -383h-802q4 -163 109 -274t258 -111q154 0 269 80q36 25 60 56l65 -56q-81 -101 -229 -143q-141 -132 -141 -240z" />
    <glyph glyph-name="Ecaron" unicode="&#x11a;" horiz-adv-x="1140" 
d="M176 1366h819v-92h-721v-516h564v-92h-564v-574h775v-92h-873v1366zM305 1774h107l182 -222l182 222h109l-240 -289h-108z" />
    <glyph glyph-name="ecaron" unicode="&#x11b;" horiz-adv-x="1093" 
d="M549 881q-147 0 -246 -104q-98 -105 -104 -251h700q-19 174 -111 264t-239 91zM579 -25q-216 0 -351 140q-134 140 -134 351t127 356t327 145t327 -138q126 -138 124 -383h-802q4 -163 109 -274t258 -111q154 0 269 80q36 25 60 56l65 -56q-61 -78 -166 -122t-213 -44z
M322 1366h98l135 -192l135 192h98l-188 -262h-90z" />
    <glyph glyph-name="Gcircumflex" unicode="&#x11c;" horiz-adv-x="1468" 
d="M1204 555h-364v92h463v-512q-186 -165 -525 -168q-299 0 -481 200t-182 510t183 514q87 97 210 152t257 55q218 1 368 -109q89 -66 139 -150l-74 -52q-12 17 -41 53t-79 72q-129 94 -276 95q-147 -1 -252 -49q-210 -97 -290 -329q-39 -114 -39 -245q0 -272 152 -447
q152 -176 409 -177q258 -1 422 116v379zM707 1774h108l232 -289h-107l-182 221l-183 -221h-108z" />
    <glyph glyph-name="gcircumflex" unicode="&#x11d;" horiz-adv-x="1093" 
d="M956 20q0 -454 -448 -454q-170 0 -290 76q-30 18 -46 32l53 70q110 -90 293 -90t273 103q73 85 73 257v144q-61 -98 -191 -155q-65 -28 -165 -28t-178 38q-236 113 -236 456q0 222 150 360t358 138q209 0 354 -66v-881zM527 61q91 0 155 34q121 65 165 183q19 52 19 87
v473q-105 41 -221 42q-117 1 -193 -27t-134 -81q-127 -115 -125 -311q0 -274 180 -367q63 -33 154 -33zM537 1366h90l188 -262h-98l-135 192l-136 -192h-98z" />
    <glyph glyph-name="Gbreve" unicode="&#x11e;" horiz-adv-x="1468" 
d="M1204 555h-364v92h463v-512q-186 -165 -525 -168q-299 0 -481 200t-182 510t183 514q87 97 210 152t257 55q218 1 368 -109q89 -66 139 -150l-74 -52q-12 17 -41 53t-79 72q-129 94 -276 95q-147 -1 -252 -49q-210 -97 -290 -329q-39 -114 -39 -245q0 -272 152 -447
q152 -176 409 -177q258 -1 422 116v379zM774 1585q82 0 128 39t50 98h88q-7 -145 -151 -198q-49 -18 -115 -18t-116 18q-96 35 -133 118q-17 39 -19 80h92q4 -59 49 -98t127 -39z" />
    <glyph glyph-name="gbreve" unicode="&#x11f;" horiz-adv-x="1093" 
d="M956 20q0 -454 -448 -454q-170 0 -290 76q-30 18 -46 32l53 70q110 -90 293 -90t273 103q73 85 73 257v144q-61 -98 -191 -155q-65 -28 -165 -28t-178 38q-236 113 -236 456q0 222 150 360t358 138q209 0 354 -66v-881zM527 61q91 0 155 34q121 65 165 183q19 52 19 87
v473q-105 41 -221 42q-117 1 -193 -27t-134 -81q-127 -115 -125 -311q0 -274 180 -367q63 -33 154 -33zM432 1327q0 -59 43 -100t115 -41t116 41t44 100h75q0 -88 -61 -152q-61 -65 -176 -65q-114 0 -173 65t-61 152h78z" />
    <glyph glyph-name="Gdotaccent" unicode="&#x120;" horiz-adv-x="1468" 
d="M1204 555h-364v92h463v-512q-186 -165 -525 -168q-299 0 -481 200t-182 510t183 514q87 97 210 152t257 55q218 1 368 -109q89 -66 139 -150l-74 -52q-12 17 -41 53t-79 72q-129 94 -276 95q-147 -1 -252 -49q-210 -97 -290 -329q-39 -114 -39 -245q0 -272 152 -447
q152 -176 409 -177q258 -1 422 116v379zM696 1702h148v-146h-148v146z" />
    <glyph glyph-name="gdotaccent" unicode="&#x121;" horiz-adv-x="1093" 
d="M956 20q0 -454 -448 -454q-170 0 -290 76q-30 18 -46 32l53 70q110 -90 293 -90t273 103q73 85 73 257v144q-61 -98 -191 -155q-65 -28 -165 -28t-178 38q-236 113 -236 456q0 222 150 360t358 138q209 0 354 -66v-881zM527 61q91 0 155 34q121 65 165 183q19 52 19 87
v473q-105 41 -221 42q-117 1 -193 -27t-134 -81q-127 -115 -125 -311q0 -274 180 -367q63 -33 154 -33zM530 1290h129v-135h-129v135z" />
    <glyph glyph-name="Gcommaaccent" unicode="&#x122;" horiz-adv-x="1468" 
d="M1204 555h-364v92h463v-512q-186 -165 -525 -168q-299 0 -481 200t-182 510t183 514q87 97 210 152t257 55q218 1 368 -109q89 -66 139 -150l-74 -52q-12 17 -41 53t-79 72q-129 94 -276 95q-147 -1 -252 -49q-210 -97 -290 -329q-39 -114 -39 -245q0 -272 152 -447
q152 -176 409 -177q258 -1 422 116v379zM752 -131h116l-151 -283h-92z" />
    <glyph glyph-name="gcommaaccent" unicode="&#x123;" horiz-adv-x="1093" 
d="M956 20q0 -454 -448 -454q-170 0 -290 76q-30 18 -46 32l53 70q110 -90 293 -90t273 103q73 85 73 257v144q-61 -98 -191 -155q-65 -28 -165 -28t-178 38q-236 113 -236 456q0 222 150 360t358 138q209 0 354 -66v-881zM527 61q91 0 155 34q121 65 165 183q19 52 19 87
v473q-105 41 -221 42q-117 1 -193 -27t-134 -81q-127 -115 -125 -311q0 -274 180 -367q63 -33 154 -33zM670 1366h86l-123 -262h-119z" />
    <glyph glyph-name="Hcircumflex" unicode="&#x124;" horiz-adv-x="1409" 
d="M176 1366h98v-608h861v608h98v-1366h-98v666h-861v-666h-98v1366zM653 1774h109l231 -289h-106l-182 221l-183 -221h-108z" />
    <glyph glyph-name="hcircumflex" unicode="&#x125;" horiz-adv-x="1089" 
d="M141 1366h92v-612q70 137 226 191q59 22 148 22q181 0 265 -106t84 -308v-553h-92v522q0 293 -161 342q-53 16 -131 16t-144 -36q-128 -72 -173 -221q-22 -70 -22 -138v-485h-92v1366zM377 1774h108l232 -289h-107l-182 221l-182 -221h-109z" />
    <glyph glyph-name="Hbar" unicode="&#x126;" horiz-adv-x="1466" 
d="M1163 758v268h-860v-268h860zM205 1026h-164v84h164v256h98v-256h860v256h99v-256h161v-84h-161v-1026h-99v666h-860v-666h-98v1026z" />
    <glyph glyph-name="hbar" unicode="&#x127;" horiz-adv-x="1112" 
d="M164 1106h-164v82h164v178h92v-178h365v-82h-365v-352q70 136 225 191q59 22 148 22t158 -29q135 -57 174 -214q18 -77 18 -171v-553h-92v522q0 292 -161 342q-52 16 -131 16t-145 -36q-128 -72 -172 -221q-22 -70 -22 -138v-485h-92v1106z" />
    <glyph glyph-name="Itilde" unicode="&#x128;" horiz-adv-x="450" 
d="M176 1366h98v-1366h-98v1366zM362 1624q74 0 152 76l57 -62q-93 -102 -209 -102q-48 0 -82 15t-64 33t-58 32q-28 16 -66 16q-80 0 -158 -76l-51 60q96 106 209 104q69 0 149 -48q31 -16 59 -32t62 -16z" />
    <glyph glyph-name="itilde" unicode="&#x129;" horiz-adv-x="382" 
d="M145 942h93v-942h-93v942zM68 1313q63 0 142 -48q28 -17 54 -33t62 -15q66 0 143 77l47 -61q-87 -100 -199 -98q-65 0 -140 48q-27 17 -55 32t-63 16q-75 0 -143 -70l-47 51q88 101 199 101z" />
    <glyph glyph-name="Imacron" unicode="&#x12a;" horiz-adv-x="450" 
d="M176 1366h98v-1366h-98v1366zM-96 1667h647v-86h-647v86z" />
    <glyph glyph-name="imacron" unicode="&#x12b;" horiz-adv-x="382" 
d="M145 942h93v-942h-93v942zM-45 1268h477v-86h-477v86z" />
    <glyph glyph-name="Ibreve" unicode="&#x12c;" horiz-adv-x="450" 
d="M176 1366h98v-1366h-98v1366zM229 1585q82 0 128 39t51 98h88q-4 -92 -73 -154t-194 -62q-126 -1 -194 63t-74 153h92q4 -59 49 -98t127 -39z" />
    <glyph glyph-name="ibreve" unicode="&#x12d;" horiz-adv-x="382" 
d="M145 942h93v-942h-93v942zM35 1327q0 -59 43 -100t115 -41q71 0 115 41t44 100h76q0 -88 -61 -152q-61 -65 -175 -65t-175 66q-60 66 -60 151h78z" />
    <glyph glyph-name="Iogonek" unicode="&#x12e;" horiz-adv-x="450" 
d="M25 -266q0 121 151 272v1360h98v-1372q-59 -60 -101 -120t-42 -120q0 -80 94 -82q61 0 137 49l41 -73q-85 -64 -183 -65q-195 -2 -195 151z" />
    <glyph glyph-name="iogonek" unicode="&#x12f;" horiz-adv-x="382" 
d="M133 1249h117v-119h-117v119zM94 -242q0 -90 113 -90q57 0 123 47l35 -69q-79 -60 -169 -61t-142 39t-52 114q0 124 143 272v932h93v-946q-144 -135 -144 -238z" />
    <glyph glyph-name="Idotaccent" unicode="&#x130;" horiz-adv-x="450" 
d="M176 1366h98v-1366h-98v1366zM154 1702h147v-146h-147v146z" />
    <glyph glyph-name="dotlessi" unicode="&#x131;" horiz-adv-x="382" 
d="M145 942h93v-942h-93v942z" />
    <glyph glyph-name="IJ" unicode="&#x132;" horiz-adv-x="1415" 
d="M176 1366h98v-1366h-98v1366zM1151 1366h98v-963q0 -434 -399 -436q-172 0 -301 117q-33 31 -55 61l73 62q123 -148 289 -148q218 0 274 192q20 69 21 169v946z" />
    <glyph glyph-name="ij" unicode="&#x133;" horiz-adv-x="835" 
d="M145 942h93v-942h-93v942zM127 1274h129v-133h-129v133zM580 1274h129v-133h-129v133zM598 -43v985h92v-971q0 -196 -48 -280q-58 -101 -202 -101q-59 0 -107 23t-75 51l49 68q66 -58 138 -59t112 57q41 59 41 227z" />
    <glyph glyph-name="Jcircumflex" unicode="&#x134;" horiz-adv-x="964" 
d="M700 420v946h99v-963q-1 -227 -105 -331t-286 -104t-310 116q-33 31 -55 61l74 62q123 -148 289 -148q218 0 274 192q20 69 20 169zM694 1774h109l231 -289h-106l-183 221l-182 -221h-108z" />
    <glyph glyph-name="jcircumflex" unicode="&#x135;" horiz-adv-x="382" 
d="M147 -43v985h93v-971q0 -194 -53 -288q-53 -93 -197 -93q-60 0 -108 23t-75 51l50 68q66 -58 137 -60q111 0 141 138q12 55 12 147zM150 1366h90l188 -262h-98l-135 192l-136 -192h-98z" />
    <glyph glyph-name="Kcommaaccent" unicode="&#x136;" horiz-adv-x="1177" 
d="M176 1366h98v-713l672 713h121l-516 -551l586 -815h-117l-541 741l-205 -219v-522h-98v1366zM575 -131h117l-151 -283h-92z" />
    <glyph glyph-name="kcommaaccent" unicode="&#x137;" horiz-adv-x="929" 
d="M141 1366h92v-895l484 471h121l-361 -350l432 -592h-110l-387 526l-179 -172v-354h-92v1366zM465 -131h104l-145 -283h-84z" />
    <glyph glyph-name="kgreenlandic" unicode="&#x138;" horiz-adv-x="972" 
d="M141 944h92v-506l529 504h121l-412 -393l481 -549h-110l-436 487l-173 -163v-324h-92v944z" />
    <glyph glyph-name="Lacute" unicode="&#x139;" horiz-adv-x="1105" 
d="M176 1366h98v-1274h775v-92h-873v1366zM338 1774h131l-193 -289h-90z" />
    <glyph glyph-name="lacute" unicode="&#x13a;" horiz-adv-x="374" 
d="M141 1366h92v-1366h-92v1366zM291 1774h131l-193 -289h-90z" />
    <glyph glyph-name="Lcommaaccent" unicode="&#x13b;" horiz-adv-x="1105" 
d="M176 1366h98v-1274h775v-92h-873v1366zM573 -131h117l-151 -283h-93z" />
    <glyph glyph-name="lcommaaccent" unicode="&#x13c;" horiz-adv-x="374" 
d="M141 1366h92v-1366h-92v1366zM131 -131h105l-146 -283h-84z" />
    <glyph glyph-name="Lcaron" unicode="&#x13d;" horiz-adv-x="1105" 
d="M176 1366h98v-1274h775v-92h-873v1366zM539 1366h96l-23 -365h-73v365z" />
    <glyph glyph-name="lcaron" unicode="&#x13e;" horiz-adv-x="493" 
d="M141 1366h92v-1366h-92v1366zM397 1366h97l-23 -365h-74v365z" />
    <glyph glyph-name="Ldot" unicode="&#x13f;" horiz-adv-x="1105" 
d="M176 1366h98v-1274h775v-92h-873v1366zM705 803h147v-146h-147v146z" />
    <glyph glyph-name="ldot" unicode="&#x140;" horiz-adv-x="534" 
d="M141 1366h92v-1366h-92v1366zM389 811h129v-135h-129v135z" />
    <glyph glyph-name="Lslash" unicode="&#x141;" horiz-adv-x="1146" 
d="M217 1366h98v-631l332 215v-96l-332 -215v-547h775v-92h-873v575l-176 -114v96l176 115v694z" />
    <glyph glyph-name="lslash" unicode="&#x142;" horiz-adv-x="477" 
d="M193 1366h92v-567l141 94v-94l-141 -94v-705h-92v643l-142 -94v94l142 94v629z" />
    <glyph glyph-name="Nacute" unicode="&#x143;" horiz-adv-x="1427" 
d="M176 1366h103l876 -1219v1219h96v-1366h-102l-877 1202v-1202h-96v1366zM795 1774h131l-193 -289h-90z" />
    <glyph glyph-name="nacute" unicode="&#x144;" horiz-adv-x="1093" 
d="M233 828v-83q75 145 226 199q61 23 151 23q182 0 265 -105q84 -105 86 -309v-553h-93v522q0 293 -160 342q-52 16 -131 16t-145 -36q-66 -37 -108 -94q-88 -118 -86 -265v-485h-93v859q0 37 -4 83h86q6 -70 6 -114zM618 1366h113l-153 -262h-86z" />
    <glyph glyph-name="Ncommaaccent" unicode="&#x145;" horiz-adv-x="1427" 
d="M176 1366h103l876 -1219v1219h96v-1366h-102l-877 1202v-1202h-96v1366zM692 -131h117l-152 -283h-92z" />
    <glyph glyph-name="ncommaaccent" unicode="&#x146;" horiz-adv-x="1093" 
d="M233 828v-83q75 145 226 199q61 23 151 23q182 0 265 -105q84 -105 86 -309v-553h-93v522q0 293 -160 342q-52 16 -131 16t-145 -36q-66 -37 -108 -94q-88 -118 -86 -265v-485h-93v859q0 37 -4 83h86q6 -70 6 -114zM541 -131h104l-145 -283h-84z" />
    <glyph glyph-name="Ncaron" unicode="&#x147;" horiz-adv-x="1427" 
d="M176 1366h103l876 -1219v1219h96v-1366h-102l-877 1202v-1202h-96v1366zM457 1774h106l182 -222l183 222h108l-239 -289h-109z" />
    <glyph glyph-name="ncaron" unicode="&#x148;" horiz-adv-x="1093" 
d="M233 828v-83q75 145 226 199q61 23 151 23q182 0 265 -105q84 -105 86 -309v-553h-93v522q0 293 -160 342q-52 16 -131 16t-145 -36q-66 -37 -108 -94q-88 -118 -86 -265v-485h-93v859q0 37 -4 83h86q6 -70 6 -114zM324 1366h98l135 -192l135 192h99l-189 -262h-90z" />
    <glyph glyph-name="napostrophe" unicode="&#x149;" horiz-adv-x="1093" 
d="M233 828v-83q75 145 226 199q61 23 151 23q182 0 265 -105q84 -105 86 -309v-553h-93v522q0 293 -160 342q-52 16 -131 16t-145 -36q-66 -37 -108 -94q-88 -118 -86 -265v-485h-93v859q0 37 -4 83h86q6 -70 6 -114zM41 1366h104l-49 -262h-71z" />
    <glyph glyph-name="Eng" unicode="&#x14a;" horiz-adv-x="1427" 
d="M1155 -8v8l-883 1202v-1202h-96v1366h103l876 -1214v1214h96v-1356q0 -420 -299 -420q-139 0 -235 91l57 73q91 -73 180 -73q201 0 201 311z" />
    <glyph glyph-name="eng" unicode="&#x14b;" horiz-adv-x="1093" 
d="M868 -43v565q0 293 -160 342q-52 16 -131 16t-145 -36q-66 -37 -108 -94q-88 -118 -86 -265v-485h-93v859q0 37 -4 83h86q6 -70 6 -114v-83q75 145 226 199q61 23 151 23q182 0 265 -105q84 -105 86 -309v-582q0 -194 -53 -288q-53 -93 -197 -93q-59 0 -107 23t-76 51
l50 68q66 -58 137 -60q111 0 141 138q12 55 12 147z" />
    <glyph glyph-name="Omacron" unicode="&#x14c;" horiz-adv-x="1585" 
d="M1366 682q0 268 -159 446q-159 177 -414 178q-254 1 -414 -178q-160 -180 -160 -446t159 -444q159 -179 415 -179q129 1 235 49q212 97 297 331q41 114 41 243zM793 -33q-147 -1 -271 55t-215 152q-192 205 -192 508q0 150 51 281t141 228q191 206 486 208q147 1 271 -55
t214 -153t141 -228t51 -282t-51 -281q-104 -266 -355 -377q-124 -56 -271 -56zM467 1667h647v-86h-647v86z" />
    <glyph glyph-name="omacron" unicode="&#x14d;" horiz-adv-x="1159" 
d="M969 467q0 168 -113 292t-276 124t-277 -120q-113 -120 -113 -288t113 -292t278 -124q162 0 275 120t113 288zM580 967q199 0 342 -145t143 -350t-142 -351q-144 -146 -344 -146t-343 146q-142 146 -142 351q0 206 143 350q144 144 343 145zM336 1268h477v-86h-477v86z
" />
    <glyph glyph-name="Obreve" unicode="&#x14e;" horiz-adv-x="1585" 
d="M1366 682q0 268 -159 446q-159 177 -414 178q-254 1 -414 -178q-160 -180 -160 -446t159 -444q159 -179 415 -179q129 1 235 49q212 97 297 331q41 114 41 243zM793 -33q-147 -1 -271 55t-215 152q-192 205 -192 508q0 150 51 281t141 228q191 206 486 208q147 1 271 -55
t214 -153t141 -228t51 -282t-51 -281q-104 -266 -355 -377q-124 -56 -271 -56zM793 1585q82 0 128 39t50 98h88q-4 -92 -73 -154q-68 -62 -194 -62q-126 -1 -194 63t-74 153h92q4 -59 50 -98t127 -39z" />
    <glyph glyph-name="obreve" unicode="&#x14f;" horiz-adv-x="1159" 
d="M969 467q0 168 -113 292t-276 124t-277 -120q-113 -120 -113 -288t113 -292t278 -124q162 0 275 120t113 288zM580 967q199 0 342 -145t143 -350t-142 -351q-144 -146 -344 -146t-343 146q-142 146 -142 351q0 206 143 350q144 144 343 145zM422 1327q0 -59 43 -100
t115 -41t116 41t43 100h76q0 -88 -61 -152q-61 -65 -175 -65t-175 66q-60 66 -60 151h78z" />
    <glyph glyph-name="Ohungarumlaut" unicode="&#x150;" horiz-adv-x="1585" 
d="M1366 682q0 268 -159 446q-159 177 -414 178q-254 1 -414 -178q-160 -180 -160 -446t159 -444q159 -179 415 -179q129 1 235 49q212 97 297 331q41 114 41 243zM793 -33q-147 -1 -271 55t-215 152q-192 205 -192 508q0 150 51 281t141 228q191 206 486 208q147 1 271 -55
t214 -153t141 -228t51 -282t-51 -281q-104 -266 -355 -377q-124 -56 -271 -56zM1075 1774h123l-205 -289h-90zM743 1774h123l-204 -289h-91z" />
    <glyph glyph-name="ohungarumlaut" unicode="&#x151;" horiz-adv-x="1159" 
d="M969 467q0 168 -113 292t-276 124t-277 -120q-113 -120 -113 -288t113 -292t278 -124q162 0 275 120t113 288zM580 967q199 0 342 -145t143 -350t-142 -351q-144 -146 -344 -146t-343 146q-142 146 -142 351q0 206 143 350q144 144 343 145zM784 1366h115l-156 -262h-81z
M508 1366h115l-156 -262h-82z" />
    <glyph glyph-name="OE" unicode="&#x152;" horiz-adv-x="2336" 
d="M1366 682q0 268 -159 446q-159 177 -414 178q-254 1 -414 -178q-160 -180 -160 -446t159 -444q159 -179 415 -179q129 1 235 49q212 97 297 331q41 114 41 243zM766 -33q-120 -1 -244 55t-215 152q-192 205 -192 508q0 150 51 281t141 228q191 206 486 208q192 0 353 -97
t226 -270v334h819v-92h-721v-516h564v-92h-564v-574h775v-92h-873v330q-66 -171 -228 -268q-160 -95 -378 -95z" />
    <glyph glyph-name="oe" unicode="&#x153;" horiz-adv-x="1968" 
d="M1423 881q-148 0 -245 -104t-105 -251h701q-18 174 -110 264t-241 91zM969 467q0 168 -113 292t-276 124t-277 -120q-113 -120 -113 -288t113 -292t278 -124q162 0 275 120t113 288zM1428 -25q-132 0 -246 73t-168 200q-59 -123 -175 -198q-115 -75 -237 -75
q-223 0 -366 146q-142 146 -142 351q0 206 143 350t351 145q207 0 351 -163q44 -50 75 -112q54 123 160 199t249 76q200 0 326 -137q125 -137 125 -384h-803q4 -162 109 -273q105 -112 259 -112q153 0 268 80q36 25 60 56l66 -56q-61 -78 -167 -122t-238 -44z" />
    <glyph glyph-name="Racute" unicode="&#x154;" horiz-adv-x="1220" 
d="M967 979q0 295 -351 295h-342v-590h355q338 0 338 295zM176 1366h412q372 0 458 -232q26 -71 25 -155q0 -133 -69 -237t-218 -138l326 -604h-113l-317 592h-406v-592h-98v1366zM637 1774h131l-193 -289h-90z" />
    <glyph glyph-name="racute" unicode="&#x155;" horiz-adv-x="690" 
d="M238 0h-93v859q0 37 -4 83h86q6 -68 6 -118v-89q44 85 101 128q118 90 248 89q45 0 77 -14l-26 -88q-23 10 -84 10q-60 0 -119 -33q-120 -67 -169 -207q-24 -69 -23 -139v-481zM440 1366h113l-154 -262h-86z" />
    <glyph glyph-name="Rcommaaccent" unicode="&#x156;" horiz-adv-x="1220" 
d="M967 979q0 295 -351 295h-342v-590h355q338 0 338 295zM176 1366h412q372 0 458 -232q26 -71 25 -155q0 -133 -69 -237t-218 -138l326 -604h-113l-317 592h-406v-592h-98v1366zM594 -131h104l-145 -283h-84z" />
    <glyph glyph-name="rcommaaccent" unicode="&#x157;" horiz-adv-x="690" 
d="M238 0h-93v859q0 37 -4 83h86q6 -68 6 -118v-89q44 85 101 128q118 90 248 89q45 0 77 -14l-26 -88q-23 10 -84 10q-60 0 -119 -33q-120 -67 -169 -207q-24 -69 -23 -139v-481zM141 -131h105l-146 -283h-84z" />
    <glyph glyph-name="Rcaron" unicode="&#x158;" horiz-adv-x="1220" 
d="M967 979q0 295 -351 295h-342v-590h355q338 0 338 295zM176 1366h412q372 0 458 -232q26 -71 25 -155q0 -133 -69 -237t-218 -138l326 -604h-113l-317 592h-406v-592h-98v1366zM258 1774h107l182 -222l182 222h109l-240 -289h-109z" />
    <glyph glyph-name="rcaron" unicode="&#x159;" horiz-adv-x="690" 
d="M238 0h-93v859q0 37 -4 83h86q6 -68 6 -118v-89q44 85 101 128q118 90 248 89q45 0 77 -14l-26 -88q-23 10 -84 10q-60 0 -119 -33q-120 -67 -169 -207q-24 -69 -23 -139v-481zM147 1366h99l135 -192l135 192h98l-188 -262h-90z" />
    <glyph glyph-name="Sacute" unicode="&#x15a;" horiz-adv-x="1155" 
d="M934 348q0 195 -220 277q-62 23 -133 42q-202 54 -275 104q-150 102 -150 265t115 263t309 100q275 0 409 -189l-69 -59q-112 155 -345 158q-154 0 -237 -77q-82 -77 -82 -167t34 -138t89 -80t124 -52q69 -21 139 -39t142 -46q151 -59 221 -190q35 -70 35 -165
q-1 -182 -133 -285q-133 -103 -350 -103q-216 0 -386 134q-46 38 -75 79l72 70q158 -189 403 -191q165 0 264 74q99 75 99 215zM649 1774h131l-192 -289h-90z" />
    <glyph glyph-name="sacute" unicode="&#x15b;" horiz-adv-x="946" 
d="M461 61q116 0 177 33q60 33 83 66t23 81q-1 93 -81 135q-49 27 -177 56q-128 28 -182 48q-177 64 -177 231q0 118 97 186t229 69q232 2 354 -145l-64 -57q-110 119 -268 119q-254 0 -254 -176q0 -113 187 -161q53 -14 108 -26q56 -12 114 -30q214 -68 214 -240
q0 -132 -110 -202q-110 -71 -254 -72q-251 -2 -396 143l59 65q123 -123 318 -123zM537 1366h112l-153 -262h-86z" />
    <glyph glyph-name="Scircumflex" unicode="&#x15c;" horiz-adv-x="1155" 
d="M934 348q0 195 -220 277q-62 23 -133 42q-202 54 -275 104q-150 102 -150 265t115 263t309 100q275 0 409 -189l-69 -59q-112 155 -345 158q-154 0 -237 -77q-82 -77 -82 -167t34 -138t89 -80t124 -52q69 -21 139 -39t142 -46q151 -59 221 -190q35 -70 35 -165
q-1 -182 -133 -285q-133 -103 -350 -103q-216 0 -386 134q-46 38 -75 79l72 70q158 -189 403 -191q165 0 264 74q99 75 99 215zM526 1774h109l231 -289h-106l-182 221l-183 -221h-108z" />
    <glyph glyph-name="scircumflex" unicode="&#x15d;" horiz-adv-x="946" 
d="M461 61q116 0 177 33q60 33 83 66t23 81q-1 93 -81 135q-49 27 -177 56q-128 28 -182 48q-177 64 -177 231q0 118 97 186t229 69q232 2 354 -145l-64 -57q-110 119 -268 119q-254 0 -254 -176q0 -113 187 -161q53 -14 108 -26q56 -12 114 -30q214 -68 214 -240
q0 -132 -110 -202q-110 -71 -254 -72q-251 -2 -396 143l59 65q123 -123 318 -123zM428 1366h90l189 -262h-99l-135 192l-135 -192h-98z" />
    <glyph glyph-name="Scedilla" unicode="&#x15e;" horiz-adv-x="1155" 
d="M934 348q0 195 -220 277q-62 23 -133 42q-202 54 -275 104q-150 102 -150 265t115 263t309 100q275 0 409 -189l-69 -59q-112 155 -345 158q-154 0 -237 -77q-82 -77 -82 -167t34 -138t89 -80t124 -52q69 -21 139 -39t142 -46q151 -59 221 -190q35 -70 35 -165
q-1 -182 -133 -285q-133 -103 -350 -103q-216 0 -386 134q-46 38 -75 79l72 70q158 -189 403 -191q165 0 264 74q99 75 99 215zM696 -274q0 88 -129 88q-70 0 -159 -31l12 72q24 8 60 19t98 11q153 0 193 -100q11 -29 11 -55q0 -86 -66 -130t-155 -44q-88 0 -128 13t-62 23
l16 70q81 -33 155 -34t114 25t40 73z" />
    <glyph glyph-name="scedilla" unicode="&#x15f;" horiz-adv-x="946" 
d="M461 61q116 0 177 33q60 33 83 66t23 81q-1 93 -81 135q-49 27 -177 56q-128 28 -182 48q-177 64 -177 231q0 118 97 186t229 69q232 2 354 -145l-64 -57q-110 119 -268 119q-254 0 -254 -176q0 -113 187 -161q53 -14 108 -26q56 -12 114 -30q214 -68 214 -240
q0 -132 -110 -202q-110 -71 -254 -72q-251 -2 -396 143l59 65q123 -123 318 -123zM592 -274q0 88 -129 88q-69 0 -160 -31l12 72q25 8 61 19t98 11t99 -14q105 -40 105 -133q0 -94 -67 -138t-155 -44t-128 13t-62 23l17 70q81 -33 155 -34t114 25t40 73z" />
    <glyph glyph-name="Scaron" unicode="&#x160;" horiz-adv-x="1155" 
d="M934 348q0 195 -220 277q-62 23 -133 42q-202 54 -275 104q-150 102 -150 265t115 263t309 100q275 0 409 -189l-69 -59q-112 155 -345 158q-154 0 -237 -77q-82 -77 -82 -167t34 -138t89 -80t124 -52q69 -21 139 -39t142 -46q151 -59 221 -190q35 -70 35 -165
q-1 -182 -133 -285q-133 -103 -350 -103q-216 0 -386 134q-46 38 -75 79l72 70q158 -189 403 -191q165 0 264 74q99 75 99 215zM297 1774h106l183 -222l182 222h109l-240 -289h-109z" />
    <glyph glyph-name="scaron" unicode="&#x161;" horiz-adv-x="946" 
d="M461 61q116 0 177 33q60 33 83 66t23 81q-1 93 -81 135q-49 27 -177 56q-128 28 -182 48q-177 64 -177 231q0 118 97 186t229 69q232 2 354 -145l-64 -57q-110 119 -268 119q-254 0 -254 -176q0 -113 187 -161q53 -14 108 -26q56 -12 114 -30q214 -68 214 -240
q0 -132 -110 -202q-110 -71 -254 -72q-251 -2 -396 143l59 65q123 -123 318 -123zM240 1366h98l135 -192l135 192h99l-189 -262h-90z" />
    <glyph glyph-name="Tcommaaccent" unicode="&#x162;" horiz-adv-x="1261" 
d="M582 1278h-531v88h1159v-88h-530v-1278h-98v1278zM571 -131h117l-151 -283h-93z" />
    <glyph glyph-name="tcommaaccent" unicode="&#x163;" horiz-adv-x="727" 
d="M707 86q-85 -111 -215 -111q-139 0 -202 69t-65 245v567h-188v86h188v311h92v-311h312v-86h-312v-545q0 -219 103 -243q31 -8 67 -9q95 0 162 82zM397 -131h105l-146 -283h-84z" />
    <glyph glyph-name="Tcaron" unicode="&#x164;" horiz-adv-x="1261" 
d="M582 1278h-531v88h1159v-88h-530v-1278h-98v1278zM346 1774h107l182 -222l182 222h109l-240 -289h-108z" />
    <glyph glyph-name="tcaron" unicode="&#x165;" horiz-adv-x="727" 
d="M707 86q-85 -111 -215 -111q-139 0 -202 69t-65 245v567h-188v86h188v311h92v-311h312v-86h-312v-545q0 -219 103 -243q31 -8 67 -9q95 0 162 82zM549 1366h96l-22 -305h-74v305z" />
    <glyph glyph-name="Tbar" unicode="&#x166;" horiz-adv-x="1261" 
d="M582 659h-287v86h287v533h-531v88h1159v-88h-530v-533h287v-86h-287v-659h-98v659z" />
    <glyph glyph-name="tbar" unicode="&#x167;" horiz-adv-x="727" 
d="M707 86q-85 -111 -215 -111q-139 0 -202 69t-65 245v196h-188v86h188v285h-188v86h188v311h92v-311h312v-86h-312v-285h312v-86h-312v-174q0 -219 103 -243q31 -8 67 -9q95 0 162 82z" />
    <glyph glyph-name="Utilde" unicode="&#x168;" horiz-adv-x="1376" 
d="M1210 545q0 -578 -522 -578q-407 0 -497 351q-26 105 -25 227v821h98v-770q0 -258 85 -385q101 -152 339 -152q344 0 406 322q18 98 18 215v770h98v-821zM813 1624q74 0 152 76l57 -62q-93 -102 -209 -102q-69 0 -146 48q-30 16 -59 32t-65 16q-80 0 -158 -76l-51 60
q96 106 209 104q71 0 148 -48q30 -16 59 -32t63 -16z" />
    <glyph glyph-name="utilde" unicode="&#x169;" horiz-adv-x="1081" 
d="M848 197q-114 -222 -370 -222q-182 0 -268 112q-75 96 -77 302v553h92v-522q0 -293 156 -342q51 -16 129 -16t144 36q126 71 169 221q20 70 21 138v485h92v-859q0 -37 4 -83h-86q-6 68 -6 112v85zM408 1313q63 0 142 -48q28 -17 54 -33t62 -15q66 0 143 77l47 -61
q-87 -100 -199 -98q-65 0 -140 48q-27 17 -55 32t-63 16q-75 0 -143 -70l-47 51q88 101 199 101z" />
    <glyph glyph-name="Umacron" unicode="&#x16a;" horiz-adv-x="1376" 
d="M1210 545q0 -578 -522 -578q-407 0 -497 351q-26 105 -25 227v821h98v-770q0 -258 85 -385q101 -152 339 -152q344 0 406 322q18 98 18 215v770h98v-821zM360 1667h648v-86h-648v86z" />
    <glyph glyph-name="umacron" unicode="&#x16b;" horiz-adv-x="1081" 
d="M848 197q-114 -222 -370 -222q-182 0 -268 112q-75 96 -77 302v553h92v-522q0 -293 156 -342q51 -16 129 -16t144 36q126 71 169 221q20 70 21 138v485h92v-859q0 -37 4 -83h-86q-6 68 -6 112v85zM293 1268h477v-86h-477v86z" />
    <glyph glyph-name="Ubreve" unicode="&#x16c;" horiz-adv-x="1376" 
d="M1210 545q0 -578 -522 -578q-407 0 -497 351q-26 105 -25 227v821h98v-770q0 -258 85 -385q101 -152 339 -152q344 0 406 322q18 98 18 215v770h98v-821zM690 1585q82 0 128 39t50 98h88q-7 -145 -151 -198q-49 -18 -115 -18q-127 -1 -196 64q-68 65 -72 152h92
q4 -59 49 -98t127 -39z" />
    <glyph glyph-name="ubreve" unicode="&#x16d;" horiz-adv-x="1081" 
d="M848 197q-114 -222 -370 -222q-182 0 -268 112q-75 96 -77 302v553h92v-522q0 -293 156 -342q51 -16 129 -16t144 36q126 71 169 221q20 70 21 138v485h92v-859q0 -37 4 -83h-86q-6 68 -6 112v85zM377 1327q0 -59 43 -100t115 -41q71 0 115 41t44 100h76q0 -88 -61 -152
q-61 -65 -175 -65t-175 66q-60 66 -60 151h78z" />
    <glyph glyph-name="Uring" unicode="&#x16e;" horiz-adv-x="1376" 
d="M1210 545q0 -578 -522 -578q-407 0 -497 351q-26 105 -25 227v821h98v-770q0 -258 85 -385q101 -152 339 -152q344 0 406 322q18 98 18 215v770h98v-821zM569 1621q-1 -60 39 -99t96 -39t96 40t40 100t-40 98t-96 38t-96 -39q-39 -39 -39 -99zM489 1622q-1 94 61 154
t153 59q91 0 153 -59q62 -60 64 -154q0 -94 -62 -154t-152 -61q-91 1 -154 61t-63 154z" />
    <glyph glyph-name="uring" unicode="&#x16f;" horiz-adv-x="1081" 
d="M848 197q-114 -222 -370 -222q-182 0 -268 112q-75 96 -77 302v553h92v-522q0 -293 156 -342q51 -16 129 -16t144 36q126 71 169 221q20 70 21 138v485h92v-859q0 -37 4 -83h-86q-6 68 -6 112v85zM424 1304q0 -56 37 -93t89 -37t89 36t37 94q0 56 -37 92t-90 36t-89 -36
t-36 -92zM550 1104q-84 0 -142 56t-58 144q0 87 58 142t142 55q85 0 142 -55q58 -55 58 -142q0 -88 -58 -144t-142 -56z" />
    <glyph glyph-name="Uhungarumlaut" unicode="&#x170;" horiz-adv-x="1376" 
d="M1210 545q0 -578 -522 -578q-407 0 -497 351q-26 105 -25 227v821h98v-770q0 -258 85 -385q101 -152 339 -152q344 0 406 322q18 98 18 215v770h98v-821zM948 1774h123l-205 -289h-90zM616 1774h123l-204 -289h-91z" />
    <glyph glyph-name="uhungarumlaut" unicode="&#x171;" horiz-adv-x="1081" 
d="M848 197q-114 -222 -370 -222q-182 0 -268 112q-75 96 -77 302v553h92v-522q0 -293 156 -342q51 -16 129 -16t144 36q126 71 169 221q20 70 21 138v485h92v-859q0 -37 4 -83h-86q-6 68 -6 112v85zM733 1366h115l-156 -262h-82zM457 1366h114l-155 -262h-82z" />
    <glyph glyph-name="Uogonek" unicode="&#x172;" horiz-adv-x="1376" 
d="M590 -266q0 121 137 235q-10 -2 -19 -2h-20q-407 0 -497 351q-26 105 -25 227v821h98v-770q0 -258 85 -385q101 -152 339 -152q344 0 406 322q18 98 18 215v770h98v-821q0 -220 -67 -342q-67 -121 -236 -209q-92 -47 -151 -112q-60 -65 -60 -117q-1 -95 95 -95
q56 0 137 51l41 -73q-85 -64 -183 -65q-196 -2 -196 151z" />
    <glyph glyph-name="uogonek" unicode="&#x173;" horiz-adv-x="1081" 
d="M848 197q-114 -222 -370 -222q-182 0 -268 112q-75 96 -77 302v553h92v-522q0 -293 156 -342q51 -16 129 -16t144 36q126 71 169 221q20 70 21 138v485h92v-859q0 -37 4 -83q-63 -59 -103 -124t-40 -114q0 -94 98 -94q73 0 137 47l35 -69q-79 -60 -168 -61
q-90 -1 -142 39t-52 113t46 147t103 126q-6 70 -6 108v79z" />
    <glyph glyph-name="Wcircumflex" unicode="&#x174;" horiz-adv-x="1789" 
d="M61 1366h111l328 -1227l346 1186h121l329 -1178l326 1219h107l-383 -1366h-109l-334 1180l-350 -1180h-115zM844 1774h108l232 -289h-107l-182 221l-182 -221h-109z" />
    <glyph glyph-name="wcircumflex" unicode="&#x175;" horiz-adv-x="1392" 
d="M31 942h102l262 -821l271 821h88l264 -836l250 836h94l-301 -942h-100l-261 803l-264 -803h-88zM651 1366h90l189 -262h-99l-135 192l-135 -192h-98z" />
    <glyph glyph-name="Ycircumflex" unicode="&#x176;" horiz-adv-x="1105" 
d="M602 0h-98v627l-471 739h119l403 -643l403 643h115l-471 -739v-627zM508 1774h108l232 -289h-107l-182 221l-182 -221h-109z" />
    <glyph glyph-name="ycircumflex" unicode="&#x177;" horiz-adv-x="946" 
d="M208 -352q68 0 102 43t65 123l78 198l-420 930h104l363 -817l313 817h100l-462 -1165q-34 -89 -70 -128q-75 -84 -172 -84q-97 1 -164 64l47 66q48 -47 116 -47zM430 1366h90l189 -262h-99l-135 192l-135 -192h-98z" />
    <glyph glyph-name="Ydieresis" unicode="&#x178;" horiz-adv-x="1105" 
d="M602 0h-98v627l-471 739h119l403 -643l403 643h115l-471 -739v-627zM324 1698h135v-142h-135v142zM664 1698h135v-142h-135v142z" />
    <glyph glyph-name="Zacute" unicode="&#x179;" horiz-adv-x="1261" 
d="M145 1274v92h1002v-90l-920 -1184h934v-92h-1061v90l920 1184h-875zM705 1774h131l-193 -289h-90z" />
    <glyph glyph-name="zacute" unicode="&#x17a;" horiz-adv-x="985" 
d="M150 860v82h716v-86l-635 -772h650v-84h-756v86l631 774h-606zM580 1366h112l-153 -262h-86z" />
    <glyph glyph-name="Zdotaccent" unicode="&#x17b;" horiz-adv-x="1261" 
d="M145 1274v92h1002v-90l-920 -1184h934v-92h-1061v90l920 1184h-875zM571 1702h148v-146h-148v146z" />
    <glyph glyph-name="zdotaccent" unicode="&#x17c;" horiz-adv-x="985" 
d="M150 860v82h716v-86l-635 -772h650v-84h-756v86l631 774h-606zM453 1290h129v-135h-129v135z" />
    <glyph glyph-name="Zcaron" unicode="&#x17d;" horiz-adv-x="1261" 
d="M145 1274v92h1002v-90l-920 -1184h934v-92h-1061v90l920 1184h-875zM377 1774h106l183 -222l182 222h108l-239 -289h-109z" />
    <glyph glyph-name="zcaron" unicode="&#x17e;" horiz-adv-x="985" 
d="M150 860v82h716v-86l-635 -772h650v-84h-756v86l631 774h-606zM297 1366h98l135 -192l136 192h98l-189 -262h-90z" />
    <glyph glyph-name="longs" unicode="&#x17f;" horiz-adv-x="645" 
d="M311 0h-92v1051q0 168 75 258t225 90t245 -109l-59 -57q-80 80 -185 81t-150 -58q-57 -69 -59 -242v-1014z" />
    <glyph glyph-name="florin" unicode="&#x192;" horiz-adv-x="966" 
d="M215 655v90h205l29 168q10 59 25 129q32 150 144 226q59 39 130 39q71 -1 108 -15q90 -35 139 -102l-63 -57q-29 31 -68 59q-38 28 -100 29q-62 0 -102 -31t-62 -78q-23 -47 -33 -102t-20 -109l-27 -156h225v-90h-241l-115 -678q-30 -164 -76 -235q-47 -72 -109 -112
t-142 -40t-138 32t-88 67l49 63q30 -40 81 -58q173 -59 258 77q37 57 67 206l115 678h-191z" />
    <glyph glyph-name="Scommaaccent" unicode="&#x218;" horiz-adv-x="1155" 
d="M934 348q0 195 -220 277q-62 23 -133 42q-202 54 -275 104q-150 102 -150 265t115 263t309 100q275 0 409 -189l-69 -59q-112 155 -345 158q-154 0 -237 -77q-82 -77 -82 -167t34 -138t89 -80t124 -52q69 -21 139 -39t142 -46q151 -59 221 -190q35 -70 35 -165
q-1 -182 -133 -285q-133 -103 -350 -103q-216 0 -386 134q-46 38 -75 79l72 70q158 -189 403 -191q165 0 264 74q99 75 99 215zM571 -131h105l-146 -283h-84z" />
    <glyph glyph-name="scommaaccent" unicode="&#x219;" horiz-adv-x="946" 
d="M461 61q116 0 177 33q60 33 83 66t23 81q-1 93 -81 135q-49 27 -177 56q-128 28 -182 48q-177 64 -177 231q0 118 97 186t229 69q232 2 354 -145l-64 -57q-110 119 -268 119q-254 0 -254 -176q0 -113 187 -161q53 -14 108 -26q56 -12 114 -30q214 -68 214 -240
q0 -132 -110 -202q-110 -71 -254 -72q-251 -2 -396 143l59 65q123 -123 318 -123zM457 -131h104l-145 -283h-84z" />
    <glyph glyph-name="uni021A" unicode="&#x21a;" horiz-adv-x="1261" 
d="M582 1278h-531v88h1159v-88h-530v-1278h-98v1278zM569 -131h117l-151 -283h-93z" />
    <glyph glyph-name="uni021B" unicode="&#x21b;" horiz-adv-x="727" 
d="M707 86q-85 -111 -215 -111q-139 0 -202 69t-65 245v567h-188v86h188v311h92v-311h312v-86h-312v-545q0 -219 103 -243q31 -8 67 -9q95 0 162 82zM418 -131h104l-145 -283h-84z" />
    <glyph glyph-name="dotlessj" unicode="&#x237;" horiz-adv-x="452" 
d="M215 -43v985h92v-971q0 -196 -48 -280q-58 -101 -202 -101q-59 0 -107 23t-75 51l49 68q66 -58 138 -59t112 57q41 59 41 227z" />
    <glyph glyph-name="apostrophe" unicode="&#x2bc;" horiz-adv-x="716" 
d="M313 1366h105l-49 -262h-72z" />
    <glyph glyph-name="circumflex" unicode="&#x2c6;" horiz-adv-x="716" 
d="M313 1366h90l189 -262h-98l-136 192l-135 -192h-98z" />
    <glyph glyph-name="caron" unicode="&#x2c7;" horiz-adv-x="716" 
d="M125 1366h98l135 -192l136 192h98l-189 -262h-90z" />
    <glyph glyph-name="uni02C9" unicode="&#x2c9;" horiz-adv-x="716" 
d="M131 1268h477v-86h-477v86z" />
    <glyph glyph-name="breve" unicode="&#x2d8;" horiz-adv-x="716" 
d="M201 1327q0 -59 43 -100q42 -41 114 -41t116 41t44 100h76q0 -88 -61 -152q-61 -65 -175 -65t-175 66q-60 66 -60 151h78z" />
    <glyph glyph-name="dotaccent" unicode="&#x2d9;" horiz-adv-x="716" 
d="M293 1290h129v-135h-129v135z" />
    <glyph glyph-name="ring" unicode="&#x2da;" horiz-adv-x="716" 
d="M231 1304q0 -56 37 -93t89 -37t89 36t37 94q0 56 -37 92t-90 36t-89 -36t-36 -92zM357 1501q85 0 143 -55t57 -142q0 -88 -57 -144q-56 -56 -142 -56t-143 56t-57 144q0 87 57 142t142 55z" />
    <glyph glyph-name="ogonek" unicode="&#x2db;" horiz-adv-x="716" 
d="M150 -263q0 73 43 139t100 124h92q-63 -59 -103 -124t-40 -114q0 -94 98 -94q73 0 137 47l35 -69q-79 -60 -168 -61q-90 -1 -142 39t-52 113z" />
    <glyph glyph-name="tilde" unicode="&#x2dc;" horiz-adv-x="716" 
d="M233 1313q64 0 143 -48q28 -17 54 -33t62 -15q66 0 143 77l47 -61q-87 -100 -199 -98q-68 0 -140 48q-27 17 -55 32t-63 16q-75 0 -143 -70l-47 51q88 101 198 101z" />
    <glyph glyph-name="hungarumlaut" unicode="&#x2dd;" horiz-adv-x="716" 
d="M500 1366h114l-155 -262h-82zM223 1366h115l-156 -262h-82z" />
    <glyph glyph-name="Omega" unicode="&#x3a9;" horiz-adv-x="1593" 
d="M102 92h330q-151 92 -232 256q-81 163 -81 330q0 166 50 294q102 261 354 373q124 54 274 54q296 0 486 -202t191 -497t-175 -492q-58 -67 -138 -116h330v-92h-512v90q182 65 287 240q104 174 104 368q0 263 -158 435t-415 173q-256 1 -415 -173t-159 -435
q0 -192 106 -368q106 -175 285 -240v-90h-512v92z" />
    <glyph glyph-name="pi" unicode="&#x3c0;" horiz-adv-x="1409" 
d="M942 236v616h-487v-852h-101v852h-229v90h1145v-90h-230v-588q0 -110 35 -148t92 -38t109 35l35 -78q-74 -43 -159 -43t-126 34q-84 70 -84 210z" />
    <glyph glyph-name="Wgrave" unicode="&#x1e80;" horiz-adv-x="1789" 
d="M61 1366h111l328 -1227l346 1186h121l329 -1178l326 1219h107l-383 -1366h-109l-334 1180l-350 -1180h-115zM698 1774h125l154 -289h-90z" />
    <glyph glyph-name="wgrave" unicode="&#x1e81;" horiz-adv-x="1392" 
d="M31 942h102l262 -821l271 821h88l264 -836l250 836h94l-301 -942h-100l-261 803l-264 -803h-88zM537 1372h118l123 -262h-86z" />
    <glyph glyph-name="Wacute" unicode="&#x1e82;" horiz-adv-x="1789" 
d="M61 1366h111l328 -1227l346 1186h121l329 -1178l326 1219h107l-383 -1366h-109l-334 1180l-350 -1180h-115zM975 1774h131l-193 -289h-90z" />
    <glyph glyph-name="wacute" unicode="&#x1e83;" horiz-adv-x="1392" 
d="M31 942h102l262 -821l271 821h88l264 -836l250 836h94l-301 -942h-100l-261 803l-264 -803h-88zM780 1366h113l-154 -262h-86z" />
    <glyph glyph-name="Wdieresis" unicode="&#x1e84;" horiz-adv-x="1789" 
d="M61 1366h111l328 -1227l346 1186h121l329 -1178l326 1219h107l-383 -1366h-109l-334 1180l-350 -1180h-115zM657 1698h136v-142h-136v142zM997 1698h136v-142h-136v142z" />
    <glyph glyph-name="wdieresis" unicode="&#x1e85;" horiz-adv-x="1392" 
d="M31 942h102l262 -821l271 821h88l264 -836l250 836h94l-301 -942h-100l-261 803l-264 -803h-88zM483 1286h123v-129h-123v129zM786 1286h123v-129h-123v129z" />
    <glyph glyph-name="Ygrave" unicode="&#x1ef2;" horiz-adv-x="1105" 
d="M602 0h-98v627l-471 739h119l403 -643l403 643h115l-471 -739v-627zM352 1774h125l154 -289h-90z" />
    <glyph glyph-name="ygrave" unicode="&#x1ef3;" horiz-adv-x="946" 
d="M208 -352q68 0 102 43t65 123l78 198l-420 930h104l363 -817l313 817h100l-462 -1165q-34 -89 -70 -128q-75 -84 -172 -84q-97 1 -164 64l47 66q48 -47 116 -47zM301 1372h119l123 -262h-86z" />
    <glyph glyph-name="endash" unicode="&#x2013;" horiz-adv-x="1024" 
d="M0 621h1024v-93h-1024v93z" />
    <glyph glyph-name="emdash" unicode="&#x2014;" horiz-adv-x="2048" 
d="M0 621h2048v-93h-2048v93z" />
    <glyph glyph-name="quoteleft" unicode="&#x2018;" horiz-adv-x="395" 
d="M190 1366h80l-37 -365h-102z" />
    <glyph glyph-name="quoteright" unicode="&#x2019;" horiz-adv-x="395" 
d="M186 1366h103l-60 -365h-79z" />
    <glyph glyph-name="quotesinglbase" unicode="&#x201a;" horiz-adv-x="395" 
d="M184 145h103l-60 -364h-80z" />
    <glyph glyph-name="quotedblleft" unicode="&#x201c;" horiz-adv-x="679" 
d="M203 1366h80l-37 -365h-103zM487 1366h80l-37 -365h-102z" />
    <glyph glyph-name="quotedblright" unicode="&#x201d;" horiz-adv-x="679" 
d="M199 1366h102l-59 -365h-80zM483 1366h103l-60 -365h-80z" />
    <glyph glyph-name="quotedblbase" unicode="&#x201e;" horiz-adv-x="679" 
d="M184 145h103l-60 -364h-80zM471 145h102l-59 -364h-80z" />
    <glyph glyph-name="dagger" unicode="&#x2020;" horiz-adv-x="1013" 
d="M461 866h-326v86h326v414h92v-414h326v-86h-326v-1114h-92v1114z" />
    <glyph glyph-name="daggerdbl" unicode="&#x2021;" horiz-adv-x="1013" 
d="M461 166h-326v86h326v614h-326v86h326v414h92v-414h326v-86h-326v-614h326v-86h-326v-414h-92v414z" />
    <glyph glyph-name="bullet" unicode="&#x2022;" horiz-adv-x="696" 
d="M503 761q64 -64 64 -156q-1 -92 -65 -155t-156 -63t-152 65q-65 65 -65 156q1 91 65 154t154 63t155 -64z" />
    <glyph glyph-name="ellipsis" unicode="&#x2026;" horiz-adv-x="1390" 
d="M166 139h139v-143h-139v143zM637 139h139v-143h-139v143zM1108 139h139v-143h-139v143z" />
    <glyph glyph-name="perthousand" unicode="&#x2030;" horiz-adv-x="2482" 
d="M1223 1290h104l-831 -1290h-105zM390 590q-134 0 -220 96t-86 274t86 273q86 94 222 94t221 -97t84 -272q-1 -176 -87 -272t-220 -96zM390 668q87 0 150 70q62 70 62 223t-62 220q-62 68 -151 68q-143 0 -192 -151q-19 -55 -19 -137t19 -138q51 -155 193 -155zM1330 -12
q-134 0 -220 96t-86 274t86 272t221 95q135 0 221 -97t85 -273q-1 -175 -87 -271t-220 -96zM1330 66q87 0 150 70q62 70 62 223q0 152 -62 220t-151 68q-143 0 -192 -151q-19 -56 -19 -138t19 -137q51 -155 193 -155zM2092 -12q-134 0 -220 96t-86 274t86 272t221 95
q135 0 221 -97t85 -273q-1 -175 -87 -271t-220 -96zM2304 358q0 155 -62 222t-151 67q-141 0 -193 -151q-18 -56 -18 -138q0 -153 63 -222q63 -70 149 -70q140 0 194 155q18 55 18 137z" />
    <glyph glyph-name="guilsinglleft" unicode="&#x2039;" horiz-adv-x="618" 
d="M145 479l217 393h101l-215 -393l215 -393h-101z" />
    <glyph glyph-name="guilsinglright" unicode="&#x203a;" horiz-adv-x="618" 
d="M371 479l-215 393h100l217 -393l-217 -393h-100z" />
    <glyph glyph-name="fraction" unicode="&#x2044;" horiz-adv-x="399" 
d="M565 1290h105l-832 -1290h-104z" />
    <glyph glyph-name="zerosuperior" unicode="&#x2070;" 
d="M357 590q-134 0 -220 96t-86 274t86 273q85 94 221 94t221 -96t85 -272t-86 -273q-87 -96 -221 -96zM569 961q0 153 -62 220q-62 68 -151 68q-143 0 -192 -151q-18 -55 -18 -137t18 -138q51 -155 193 -155q87 0 150 70q62 71 62 223z" />
    <glyph glyph-name="foursuperior" unicode="&#x2074;" 
d="M477 840v366l-301 -366h301zM559 1307v-467h88v-74h-88v-154h-82v154h-397v72l387 469h92z" />
    <glyph glyph-name="fivesuperior" unicode="&#x2075;" 
d="M154 729q83 -59 191 -59q107 0 157 83q18 30 18 88t-47 97t-121 39t-147 -25l-41 35l51 320h363v-80h-295l-31 -189q52 15 112 15q170 0 231 -132q19 -41 19 -91q0 -104 -75 -172t-205 -68q-129 0 -223 67z" />
    <glyph glyph-name="sixsuperior" unicode="&#x2076;" 
d="M197 904v-17q0 -147 108 -201q37 -18 93 -18q57 0 106 41t49 110q-1 70 -25 102q-49 64 -152 64t-177 -65q-2 -4 -2 -16zM448 1247q-117 0 -177 -67q-59 -67 -72 -181q92 70 198 69t177 -64t71 -176t-77 -176q-77 -62 -175 -62q-147 0 -218 89t-71 234q0 205 88 309
t246 105q97 0 174 -55l-49 -66q-46 41 -115 41z" />
    <glyph glyph-name="sevensuperior" unicode="&#x2077;" 
d="M104 1231v76h486v-78q-95 -151 -219 -458q-37 -89 -62 -161h-100q107 286 177 419q69 132 112 202h-394z" />
    <glyph glyph-name="eightsuperior" unicode="&#x2078;" 
d="M510 1145q0 53 -38 82t-102 29t-102 -29q-37 -29 -37 -82q-1 -53 45 -81t101 -44q133 45 133 125zM369 664q174 0 178 124q0 59 -53 94t-136 64q-68 -24 -118 -58t-50 -86t16 -74q44 -64 163 -64zM639 787q0 -137 -144 -181q-52 -16 -126 -16q-139 0 -203 56t-66 138
q0 107 109 169q31 17 61 30q-124 49 -127 168q-1 76 57 126t172 50t169 -50t55 -135t-84 -136q-23 -15 -43 -23q63 -25 116 -75q54 -49 54 -121z" />
    <glyph glyph-name="ninesuperior" unicode="&#x2079;" 
d="M530 1012v18q0 142 -110 200q-37 19 -97 19t-100 -39q-51 -44 -51 -113t24 -101q49 -64 144 -64q51 0 103 18t85 47q2 3 2 15zM151 913q-71 63 -71 175t77 175q77 64 175 64q147 0 218 -88t71 -235q0 -206 -86 -310t-234 -104q-109 0 -188 55l49 68q16 -15 57 -29t87 -14
q94 0 151 68q58 68 71 180q-92 -70 -199 -69t-178 64z" />
    <glyph glyph-name="zeroinferior" unicode="&#x2080;" 
d="M357 -18q-134 0 -220 96t-86 274t86 272t221 95q135 0 220 -94q86 -99 86 -275t-86 -272t-221 -96zM357 59q38 -1 76 15t69 51q67 76 67 227t-62 220t-151 69q-143 0 -192 -152q-18 -55 -18 -137t18 -137q36 -107 118 -141q38 -16 75 -15z" />
    <glyph glyph-name="oneinferior" unicode="&#x2081;" 
d="M473 698v-696h-90v606l-213 -102l-33 67l258 125h78z" />
    <glyph glyph-name="twoinferior" unicode="&#x2082;" 
d="M100 80q0 106 207 223q101 63 132 90q64 57 64 120q1 63 -47 93t-110 31q-62 0 -114 -30t-82 -70l-62 55q36 45 104 86t146 41q78 1 124 -17q138 -51 138 -184t-153 -227q-41 -27 -93 -57t-102 -64q-50 -35 -51 -86h405v-82h-506v78z" />
    <glyph glyph-name="threeinferior" unicode="&#x2083;" 
d="M449 97q55 40 55 111t-46 108q-46 36 -107 36q-60 0 -91 -10l-24 47l219 240h-318v69h430v-57l-217 -227q16 4 37 4q95 0 151 -62t56 -153q0 -92 -77 -157q-77 -64 -204 -64t-227 63l45 68q70 -54 166 -55t152 39z" />
    <glyph glyph-name="fourinferior" unicode="&#x2084;" 
d="M477 231v367l-301 -367h301zM559 698v-467h88v-73h-88v-154h-82v154h-397v71l387 469h92z" />
    <glyph glyph-name="fiveinferior" unicode="&#x2085;" 
d="M520 214q0 155 -180 155q-55 0 -135 -25q-19 15 -41 35l51 319h363v-80h-295l-31 -188q48 14 110 14q114 0 184 -62q68 -62 68 -163q0 -100 -75 -168t-204 -69q-130 0 -224 67l43 72q82 -58 165 -59q83 0 124 26q77 50 77 126z" />
    <glyph glyph-name="sixinferior" unicode="&#x2086;" 
d="M197 296v-17q0 -147 108 -201q72 -35 144 -8q104 36 104 147q-1 63 -25 95q-48 63 -151 64t-178 -65q-2 -4 -2 -15zM448 639q-219 0 -249 -248q90 68 197 68q107 1 178 -63t71 -177t-77 -175t-175 -62q-147 0 -218 89t-71 234q0 205 88 309t246 105q94 0 174 -55l-49 -66
q-46 41 -115 41z" />
    <glyph glyph-name="seveninferior" unicode="&#x2087;" 
d="M104 623v75h486v-77q-95 -151 -219 -458q-37 -89 -62 -161h-100q145 386 289 621h-394z" />
    <glyph glyph-name="eightinferior" unicode="&#x2088;" 
d="M510 537q0 53 -38 81t-102 29q-64 0 -102 -29q-38 -30 -37 -82q-1 -52 45 -80t101 -44q133 45 133 125zM207 120q43 -65 163 -65q74 1 110 21q65 37 66 110q1 74 -119 125q-34 15 -69 27q-68 -24 -118 -58t-50 -86t17 -74zM372 719q114 0 169 -50t55 -126
q0 -117 -127 -168q104 -41 152 -123q18 -33 18 -73q0 -137 -144 -181q-52 -16 -126 -16t-125 16q-140 44 -144 178q0 107 109 169q31 17 61 30q-124 49 -127 168q-1 76 57 126t172 50z" />
    <glyph glyph-name="nineinferior" unicode="&#x2089;" 
d="M530 404v18q0 139 -110 200q-37 19 -97 19t-100 -39q-51 -44 -51 -113t24 -101q49 -64 144 -64q51 0 103 18t85 47q2 4 2 15zM621 395q0 -205 -86 -309t-234 -104q-109 0 -188 55l49 67q16 -16 57 -29q151 -48 242 59q54 63 67 175q-91 -69 -198 -68q-108 1 -179 64
t-71 175t76 175q76 62 176 64q147 0 218 -88t71 -236z" />
    <glyph glyph-name="Euro" unicode="&#x20ac;" horiz-adv-x="1116" 
d="M340 698v-67q0 -42 4 -90h559l-31 -82h-518q36 -193 138 -296t249 -104q95 0 166 37t107 78l61 -72q-133 -132 -355 -134q-90 0 -174 38q-159 74 -240 263q-38 89 -54 190h-201l31 82h158q-4 27 -4 53v103q0 26 4 51h-189l31 81h168q35 218 158 358t333 140
q161 0 288 -97q30 -24 46 -38l-61 -72q-10 8 -32 28q-99 88 -245 87t-247 -105t-136 -301h549l-31 -81h-528q-4 -25 -4 -50z" />
    <glyph glyph-name="afii61289" unicode="&#x2113;" horiz-adv-x="954" 
d="M545 1294q-49 0 -87 -68t-38 -222v-412q241 267 239 524q0 98 -32 138q-33 40 -82 40zM262 895q0 406 169 491q54 27 126 27q104 0 172 -77q68 -76 68 -240q0 -314 -377 -666v-41q0 -220 97 -257q31 -11 81 -11t110 34t93 81l39 -41l43 -37q-118 -176 -320 -176
q-299 0 -299 342q-26 -20 -50 -36t-50 -36q-14 31 -51 90q70 48 149 119v434z" />
    <glyph glyph-name="trademark" unicode="&#x2122;" horiz-adv-x="1902" 
d="M936 1366h100l271 -455l262 455h114l21 -784h-90l-19 667l-264 -446h-57l-256 430l-19 -651h-81zM356 1284h-305v82h697v-82h-302v-702h-90v702z" />
    <glyph glyph-name="uni2126" unicode="&#x2126;" horiz-adv-x="1593" 
d="M102 92h330q-151 92 -232 256q-81 163 -81 330q0 166 50 294q102 261 354 373q124 54 274 54q296 0 486 -202t191 -497t-175 -492q-58 -67 -138 -116h330v-92h-512v90q182 65 287 240q104 174 104 368q0 263 -158 435t-415 173q-256 1 -415 -173t-159 -435
q0 -192 106 -368q106 -175 285 -240v-90h-512v92z" />
    <glyph glyph-name="estimated" unicode="&#x212e;" horiz-adv-x="1816" 
d="M1423 733q8 0 9 15v403q0 27 -19 49q-209 209 -500 209q-145 0 -274 -59t-225 -158q-21 -17 -21 -49v-395q0 -14 10 -15h1020zM393 283q0 -27 19 -45q205 -218 501 -220q162 0 297 67t234 177h117q-162 -201 -445 -261t-524 35q-304 118 -435 391q-65 134 -65 288
q0 153 65 287q133 274 435 394q150 58 320 58t320 -58q307 -118 438 -394q65 -134 65 -287v-21h-1332q-10 0 -10 -8v-403z" />
    <glyph glyph-name="onethird" unicode="&#x2153;" horiz-adv-x="1720" 
d="M442 1307v-697h-90v607l-213 -103l-33 68l259 125h77zM1163 1290h105l-832 -1290h-104zM1430 97q55 40 55 111t-46 108q-46 36 -107 36q-60 0 -91 -10l-24 47l219 240h-318v69h430v-57l-217 -227q16 4 37 4q96 0 152 -62t55 -153q0 -92 -77 -157q-77 -64 -204 -64
t-227 63l45 68q70 -54 166 -55t152 39z" />
    <glyph glyph-name="twothirds" unicode="&#x2154;" horiz-adv-x="1720" 
d="M113 688q0 70 57 119q57 50 121 89q65 38 100 60q125 80 125 154t-48 104t-110 31q-62 0 -114 -30q-51 -30 -82 -70l-62 55q35 45 104 86q68 41 146 41q135 0 199 -59q63 -59 63 -146q0 -129 -152 -223q-42 -27 -94 -57t-102 -64q-50 -35 -51 -86h405v-82h-505v78z
M1237 1290h104l-831 -1290h-104zM1475 97q55 40 55 112t-46 108q-46 35 -107 35q-60 0 -91 -10l-24 47l219 240h-318v69h430v-57l-217 -227q16 4 37 4q95 0 151 -62t56 -153q0 -92 -77 -157q-77 -64 -204 -64t-227 63l45 68q70 -54 166 -55t152 39z" />
    <glyph glyph-name="onefifth" unicode="&#x2155;" horiz-adv-x="1720" 
d="M432 1307v-697h-90v607l-213 -103l-33 68l258 125h78zM1163 1290h105l-832 -1290h-104zM1491 232q0 58 -47 98q-48 39 -118 39t-150 -25q-19 15 -41 35l51 319h362v-80h-295l-30 -188q49 14 111 14q170 0 232 -132q19 -42 19 -91q0 -103 -75 -171t-204 -68t-225 67l43 72
q82 -58 189 -59t160 82q18 30 18 88z" />
    <glyph glyph-name="twofifths" unicode="&#x2156;" horiz-adv-x="1720" 
d="M102 688q0 69 59 121t151 105t125 84q67 61 68 124q1 62 -47 92t-110 31q-62 0 -114 -30t-82 -70l-62 55q35 45 104 86t146 41q136 0 199 -59t63 -146q0 -127 -152 -223q-42 -27 -94 -57t-102 -64q-50 -35 -51 -86h405v-82h-506v78zM1253 1290h105l-832 -1290h-104z
M1536 232q0 58 -47 98q-47 39 -117 39t-151 -25q-19 15 -41 35l51 319h362v-80h-295l-30 -188q48 14 110 14q114 0 184 -62q68 -62 68 -163q0 -100 -75 -169t-204 -68q-129 0 -225 67l43 72q82 -58 189 -59t160 82q18 30 18 88z" />
    <glyph glyph-name="threefifths" unicode="&#x2157;" horiz-adv-x="1720" 
d="M300 666q95 0 151 40q55 40 55 109q0 141 -166 146q-43 0 -78 -11l-24 47l219 240h-318v70h430v-58l-217 -227q16 4 37 4q95 0 151 -61t56 -153t-77 -158q-77 -64 -204 -64t-227 63l45 68q72 -55 167 -55zM1210 1290h105l-832 -1290h-104zM1536 232q0 58 -47 98
q-47 39 -117 39t-151 -25q-19 15 -41 35l51 319h362v-80h-295l-30 -188q48 14 110 14q114 0 184 -62q68 -62 68 -163q0 -100 -75 -169t-204 -68q-129 0 -225 67l43 72q82 -58 189 -59t160 82q18 30 18 88z" />
    <glyph glyph-name="fourfifths" unicode="&#x2158;" horiz-adv-x="1720" 
d="M483 840v366l-301 -366h301zM565 1307v-467h88v-74h-88v-154h-82v154h-397v72l387 469h92zM1255 1290h105l-832 -1290h-104zM1540 214q0 155 -180 155q-55 0 -135 -25q-19 15 -41 35l51 319h362v-80h-294l-31 -188q48 14 110 14q114 0 184 -62q68 -62 68 -163
q0 -100 -75 -169t-204 -68q-129 0 -225 67l44 72q82 -58 165 -59q83 0 124 26q77 50 77 126z" />
    <glyph glyph-name="onesixth" unicode="&#x2159;" horiz-adv-x="1720" 
d="M416 1307v-697h-90v607l-213 -103l-33 68l258 125h78zM1145 1290h104l-831 -1290h-105zM1151 296v-17q0 -148 109 -201q73 -36 143 -8q104 36 104 144t-82 146q-33 16 -86 16q-110 1 -186 -65q-2 -4 -2 -15zM1403 639q-120 0 -181 -73q-53 -60 -69 -175q90 68 197 68
q108 1 179 -63t71 -176t-78 -175q-77 -63 -174 -63q-147 0 -219 89q-71 89 -70 234q0 205 88 309t246 105q92 0 174 -55l-49 -66q-46 41 -115 41z" />
    <glyph glyph-name="fivesixths" unicode="&#x215a;" horiz-adv-x="1720" 
d="M131 729q83 -59 168 -59q84 0 123 26q74 50 75 127q1 76 -46 115t-120 39t-149 -25l-41 35l52 320h362v-80h-295l-31 -189q53 15 112 15q170 0 231 -132q42 -92 1 -184q-36 -87 -141 -128q-50 -19 -112 -19q-136 0 -232 67zM1206 1290h105l-832 -1290h-104zM1186 296v-17
q0 -147 108 -201q72 -35 144 -8q104 36 104 147q0 63 -24 95q-48 63 -152 64q-103 1 -178 -65q-2 -4 -2 -15zM1437 639q-219 0 -249 -248q90 68 197 68q108 1 179 -63q70 -64 70 -177t-77 -175t-175 -62q-147 0 -218 89t-70 234q0 205 88 309t245 105q92 0 175 -55l-50 -66
q-46 41 -115 41z" />
    <glyph glyph-name="oneeighth" unicode="&#x215b;" horiz-adv-x="1720" 
d="M420 1307v-697h-90v607l-213 -103l-33 68l258 125h78zM1147 1290h104l-831 -1290h-105zM1328 647q-64 0 -101 -29q-37 -30 -37 -82t45 -80t100 -44q135 46 133 125q0 53 -38 81t-102 29zM1149 180q0 -94 116 -119q31 -6 85 -6q54 1 90 21q66 38 65 111q0 74 -120 124
q-33 15 -68 27q-68 -24 -118 -58t-50 -100zM1597 179q0 -137 -144 -181q-52 -16 -126 -16t-125 16q-143 45 -143 178q0 108 108 169q31 17 62 30q-81 33 -115 105q-12 28 -12 63q0 76 57 126t171 50t169 -50t55 -126q0 -117 -127 -168q66 -26 107 -66q63 -58 63 -130z" />
    <glyph glyph-name="threeeighths" unicode="&#x215c;" horiz-adv-x="1720" 
d="M290 666q95 0 150 40q56 40 56 95q1 127 -104 152q-75 18 -140 -3l-25 47l219 240h-317v70h430v-58l-217 -227q16 4 37 4q96 0 151 -61q56 -61 56 -153t-77 -158q-77 -64 -204 -64t-227 63l45 68q72 -55 167 -55zM1208 1290h105l-832 -1290h-104zM1374 647
q-64 0 -102 -29q-37 -30 -37 -82t45 -80t100 -44q135 46 133 125q1 53 -37 81t-102 29zM1194 180q0 -94 116 -119q32 -6 86 -6q54 1 88 21q66 38 66 111q0 74 -119 124q-34 15 -69 27q-68 -24 -118 -58t-50 -100zM1642 179q0 -137 -144 -181q-52 -16 -126 -16t-125 16
q-143 45 -143 178q0 108 108 169q31 17 62 30q-81 33 -115 105q-12 28 -12 63q0 76 57 126t171 50t169 -50t55 -133t-83 -139q-23 -14 -43 -22q64 -26 106 -66q63 -58 63 -130z" />
    <glyph glyph-name="fiveeighths" unicode="&#x215d;" horiz-adv-x="1720" 
d="M137 729q83 -59 168 -59q84 0 123 26q74 50 75 127q1 76 -46 115t-120 39t-149 -25l-41 35l52 320h362v-80h-295l-30 -189q53 15 112 15q167 0 231 -132q19 -41 19 -91q0 -104 -73 -168q-79 -72 -207 -72t-224 67zM1200 1290h105l-832 -1290h-104zM1505 537q0 53 -38 81
t-102 29q-64 0 -101 -29q-37 -30 -37 -82t45 -80t100 -44q133 45 133 125zM1186 180q0 -94 116 -119q32 -6 64 -6q122 0 161 66q15 25 15 59t-22 66q-22 33 -77 57q-54 23 -89 35q-68 -24 -118 -58t-50 -100zM1634 179q0 -137 -144 -181q-52 -16 -126 -16t-125 16
q-143 45 -143 178q0 108 108 169q31 17 62 30q-81 33 -115 105q-12 28 -12 63q0 76 57 126t171 50t169 -50t55 -126q0 -117 -127 -168q107 -43 152 -123q18 -32 18 -73z" />
    <glyph glyph-name="seveneighths" unicode="&#x215e;" horiz-adv-x="1720" 
d="M88 1231v76h485v-78q-85 -135 -219 -458q-37 -89 -61 -161h-100q146 391 288 621h-393zM1147 1290h104l-831 -1290h-105zM1505 537q0 53 -38 81t-102 29q-64 0 -101 -29q-37 -30 -37 -82t45 -80t100 -44q133 45 133 125zM1186 180q0 -94 116 -119q32 -6 64 -6
q122 0 161 66q15 25 15 59t-22 66q-22 33 -77 57q-54 23 -89 35q-68 -24 -118 -58t-50 -100zM1634 179q0 -137 -144 -181q-52 -16 -126 -16t-125 16q-143 45 -143 178q0 108 108 169q31 17 62 30q-81 33 -115 105q-12 28 -12 63q0 76 57 126t171 50t169 -50t55 -126
q0 -117 -127 -168q107 -43 152 -123q18 -32 18 -73z" />
    <glyph glyph-name="partialdiff" unicode="&#x2202;" horiz-adv-x="1148" 
d="M280 614q-92 -112 -92 -259q0 -148 80 -221t189 -74q110 -1 184 36q219 110 283 475q-27 27 -61 58q-123 112 -318 112q-82 1 -151 -35q-68 -36 -114 -92zM600 1399q221 0 335 -158t114 -410q0 -348 -124 -581q-67 -125 -179 -204t-284 -79q-172 -1 -276 103t-104 285
t127 333t344 152q175 0 312 -90q38 -25 73 -52q6 64 6 148q0 197 -80 318q-89 141 -268 141q-104 0 -169 -30t-112 -65l-53 76q162 113 338 113z" />
    <glyph glyph-name="Delta" unicode="&#x2206;" horiz-adv-x="1331" 
d="M1161 92l-499 1151l-498 -1151h997zM1274 0h-1217v92l559 1274h99l559 -1274v-92z" />
    <glyph glyph-name="product" unicode="&#x220f;" horiz-adv-x="1361" 
d="M248 1274h-223v92h1312v-92h-225v-1522h-98v1522h-668v-1522h-98v1522z" />
    <glyph glyph-name="summation" unicode="&#x2211;" horiz-adv-x="1071" 
d="M90 1366h911v-92h-788l494 -699l-502 -731h803v-92h-922v92l498 731l-494 699v92z" />
    <glyph glyph-name="minus" unicode="&#x2212;" horiz-adv-x="1116" 
d="M147 700h822v-92h-822v92z" />
    <glyph glyph-name="uni2215" unicode="&#x2215;" horiz-adv-x="399" 
d="M565 1290h105l-832 -1290h-104z" />
    <glyph glyph-name="uni2219" unicode="&#x2219;" horiz-adv-x="415" 
d="M143 809h129v-135h-129v135z" />
    <glyph glyph-name="radical" unicode="&#x221a;" horiz-adv-x="1116" 
d="M55 641v92h230l295 -643l436 1409h100l-461 -1499h-141l-299 641h-160z" />
    <glyph glyph-name="infinity" unicode="&#x221e;" horiz-adv-x="1380" 
d="M1074 431q118 65 118 232t-118 229q-40 22 -97 21q-98 0 -164 -70t-80 -181q14 -111 80 -182t164 -70q57 0 97 21zM647 662q-14 112 -80 182t-169 70t-156 -74q-52 -73 -54 -178q0 -170 117 -231q41 -22 98 -21q98 0 164 70t80 182zM388 326q-127 0 -212 91
q-84 91 -84 243q0 153 85 246t210 91q172 0 260 -125q27 -37 43 -75q57 140 193 184q49 16 110 16q126 0 212 -92q85 -92 84 -245t-86 -244q-85 -92 -210 -90q-169 0 -260 125q-27 36 -43 75q-16 -39 -43 -75q-91 -125 -259 -125z" />
    <glyph glyph-name="integral" unicode="&#x222b;" horiz-adv-x="1116" 
d="M608 119q0 -176 -74 -273q-75 -96 -226 -96t-249 109l66 61q83 -83 182 -84t152 63t53 226v905q0 180 75 274t225 95q150 0 249 -111l-64 -61q-78 82 -188 84q-145 0 -185 -146q-15 -55 -16 -141v-905z" />
    <glyph glyph-name="approxequal" unicode="&#x2248;" horiz-adv-x="1116" 
d="M381 817q-105 0 -195 -86l-59 68q47 49 117 80t130 31t106 -17t90 -35t86 -34t98 -17q56 0 100 26q43 26 84 60l53 -72q-107 -112 -252 -110q-77 0 -189 53q-111 53 -169 53zM381 524q-105 0 -195 -86l-59 68q47 49 117 80q70 30 130 30t106 -16t90 -34t86 -36
q42 -16 98 -16t100 26q43 26 84 60l53 -72q-47 -50 -113 -80t-142 -30q-75 0 -186 53t-169 53z" />
    <glyph glyph-name="notequal" unicode="&#x2260;" horiz-adv-x="1116" 
d="M147 424v92h279l162 262h-441v92h498l146 234l73 -45l-116 -189h221v-92h-279l-164 -262h443v-92h-500l-139 -225l-72 47l111 178h-222z" />
    <glyph glyph-name="lessequal" unicode="&#x2264;" horiz-adv-x="1116" 
d="M150 694l776 389l43 -84l-695 -344l695 -344l-41 -84l-778 389v78zM147 92h822v-92h-822v92z" />
    <glyph glyph-name="greaterequal" unicode="&#x2265;" horiz-adv-x="1116" 
d="M150 311l694 344l-694 344l40 84l779 -389v-78l-776 -389zM147 92h822v-92h-822v92z" />
    <glyph glyph-name="lozenge" unicode="&#x25ca;" horiz-adv-x="1138" 
d="M942 684l-373 602l-372 -602l372 -604zM82 684l424 682h127l424 -682l-424 -684h-127z" />
    <glyph glyph-name="oneseventh" unicode="&#xf506;" horiz-adv-x="1720" 
d="M444 1307v-697h-90v607l-213 -103l-32 68l258 125h77zM1149 1290h104l-831 -1290h-105zM1087 623v75h486v-77q-85 -135 -219 -458q-37 -89 -62 -161h-100q145 386 289 621h-394z" />
    <glyph glyph-name="twosevenths" unicode="&#xf507;" horiz-adv-x="1720" 
d="M115 688q0 70 58 120q58 51 122 89q65 37 99 59q124 81 124 155q0 73 -48 103t-110 31q-62 0 -114 -30q-51 -30 -82 -70l-62 55q35 45 104 86q68 41 146 41q135 0 199 -59q63 -59 63 -146q0 -129 -152 -223q-42 -27 -94 -57t-102 -64q-50 -35 -51 -86h406v-82h-506v78z
M1227 1290h104l-831 -1290h-105zM1133 623v75h485v-77q-85 -135 -219 -458q-37 -89 -62 -161h-100q145 386 289 621h-393z" />
    <glyph glyph-name="threesevenths" unicode="&#xf508;" horiz-adv-x="1720" 
d="M312 666q96 0 151 40t55 109q0 141 -166 146q-43 0 -78 -11l-24 47l219 240h-317v70h430v-58l-217 -227q16 4 36 4q95 0 151 -61t56 -153t-77 -158q-77 -64 -203 -64t-228 63l45 68q71 -55 167 -55zM1174 1290h104l-832 -1290h-104zM1133 623v75h485v-77
q-85 -135 -219 -458q-37 -89 -62 -161h-100q145 386 289 621h-393z" />
    <glyph glyph-name="foursevenths" unicode="&#xf509;" horiz-adv-x="1720" 
d="M496 840v366l-301 -366h301zM578 1307v-467h88v-74h-88v-154h-82v154h-398v72l387 469h93zM1227 1290h104l-831 -1290h-105zM1137 623v75h485v-77q-85 -135 -219 -458q-37 -89 -62 -161h-100q145 386 289 621h-393z" />
    <glyph glyph-name="fivesevenths" unicode="&#xf50a;" horiz-adv-x="1720" 
d="M156 729q83 -59 191 -59q107 0 157 83q18 30 18 88t-47 97t-121 39t-147 -25l-41 35l51 320h363v-80h-295l-31 -189q52 15 112 15q170 0 231 -132q19 -41 19 -91q0 -104 -75 -172t-205 -68q-129 0 -223 67zM1176 1290h104l-831 -1290h-105zM1120 623v75h486v-77
q-88 -139 -220 -458q-37 -89 -61 -161h-100q104 278 175 414q71 137 113 207h-393z" />
    <glyph glyph-name="sixsevenths" unicode="&#xf50b;" horiz-adv-x="1720" 
d="M203 904v-17q0 -147 108 -201q37 -18 93 -18t106 41q49 41 49 110q-1 70 -25 102q-49 64 -152 64t-177 -65q-2 -4 -2 -16zM454 1247q-117 0 -177 -67q-59 -67 -72 -181q92 70 199 69q106 -1 177 -64t71 -176t-78 -176q-77 -62 -175 -62q-147 0 -218 89t-70 234
q0 205 88 309t245 105q97 0 174 -55l-49 -66q-46 41 -115 41zM1194 1290h104l-831 -1290h-105zM1124 623v75h486v-77q-95 -151 -219 -458q-37 -89 -62 -161h-100q145 386 289 621h-394z" />
    <glyph glyph-name="oneninth" unicode="&#xf50c;" horiz-adv-x="1720" 
d="M449 1307v-697h-91v607l-213 -103l-32 68l258 125h78zM1139 1290h104l-831 -1290h-105zM1518 404v18q0 138 -111 200q-37 19 -76 19q-118 0 -157 -89q-25 -53 -14 -100q12 -48 30 -72q43 -56 137 -56q51 0 103 18t86 47q2 4 2 15zM1608 395q0 -205 -86 -309t-234 -104
q-109 0 -188 55l49 67q16 -16 57 -29q151 -48 242 59q52 61 68 175q-32 -25 -88 -47t-117 -20q-102 0 -173 63t-71 174t76 175q76 63 176 65q147 0 218 -88t71 -236z" />
    <glyph glyph-name="twoninths" unicode="&#xf50d;" horiz-adv-x="1720" 
d="M100 688q0 69 59 121t151 105t125 84q67 61 68 124q1 62 -47 92t-110 31q-62 0 -114 -30t-82 -70l-62 55q36 45 104 86t146 41q136 0 199 -59t63 -146q0 -128 -153 -223q-41 -27 -93 -57t-102 -64q-50 -35 -51 -86h405v-82h-506v78zM1214 1290h105l-832 -1290h-104z
M1542 404v18q0 139 -110 200q-37 19 -97 19t-100 -39q-51 -44 -51 -121q0 -102 82 -141q33 -16 85 -16q115 0 189 65q2 4 2 15zM1313 -18q-110 0 -189 55l50 67q16 -16 57 -29q151 -48 242 59q54 63 67 175q-91 -69 -199 -68t-179 64q-70 63 -70 175t75 174q75 63 176 65
q147 0 219 -88t70 -236q0 -205 -86 -309t-233 -104z" />
    <glyph glyph-name="fourninths" unicode="&#xf50e;" horiz-adv-x="1720" 
d="M479 840v366l-301 -366h301zM561 1307v-467h88v-74h-88v-154h-82v154h-397v72l387 469h92zM1231 1290h104l-831 -1290h-105zM1546 404v18q0 139 -110 200q-37 19 -97 19t-100 -39q-51 -44 -51 -113t24 -101q49 -64 144 -64q51 0 103 18t85 47q2 4 2 15zM1317 -18
q-110 0 -189 55l50 67q16 -16 57 -29q151 -48 242 59q54 63 67 175q-91 -69 -199 -68t-179 64q-70 63 -70 175t76 175q76 62 176 64q147 0 218 -88t70 -236q0 -205 -86 -309t-233 -104z" />
    <glyph glyph-name="fiveninths" unicode="&#xf50f;" horiz-adv-x="1720" 
d="M143 729q83 -59 168 -59q84 0 123 26q76 52 76 128q0 75 -47 114t-121 39t-147 -25l-41 35l51 320h362v-80h-295l-30 -189q52 15 112 15q166 0 231 -132q19 -41 19 -91q0 -104 -73 -168q-79 -72 -207 -72t-224 67zM1190 1290h104l-831 -1290h-105zM1532 404v18
q0 140 -111 200q-37 19 -96 19t-100 -39q-51 -44 -51 -134q0 -89 81 -128q33 -16 85 -16t104 18t86 47q2 4 2 15zM1622 395q0 -205 -86 -309t-233 -104q-110 0 -189 55l49 67q15 -16 57 -29q99 -31 174 6q112 53 136 228q-91 -69 -199 -68t-179 64t-71 174t76 175
q76 63 176 65q147 0 218 -88t71 -236z" />
    <glyph glyph-name="sevenninths" unicode="&#xf510;" horiz-adv-x="1720" 
d="M96 1231v76h486v-78q-88 -139 -220 -458q-37 -89 -61 -161h-100q107 286 177 419q69 132 111 202h-393zM1118 1290h105l-832 -1290h-104zM1534 404v18q0 140 -111 200q-37 19 -96 19t-100 -39q-51 -44 -51 -134q0 -89 81 -128q33 -16 85 -16t104 18t86 47q2 4 2 15z
M1624 395q0 -205 -86 -309t-233 -104q-110 0 -189 55l49 67q15 -16 57 -29q99 -31 174 6q112 53 136 228q-91 -69 -199 -68t-179 64t-71 174t76 175q76 63 176 65q147 0 218 -88t71 -236z" />
    <glyph glyph-name="eightninths" unicode="&#xf511;" horiz-adv-x="1720" 
d="M504 1145q0 53 -38 82t-102 29t-102 -30q-37 -28 -37 -81q-1 -53 45 -81t101 -44q133 45 133 125zM362 664q175 0 179 124q0 59 -53 94t-136 64q-68 -24 -118 -58t-50 -100t54 -95q53 -29 124 -29zM366 1327q114 0 168 -50q56 -50 56 -135t-84 -136q-23 -15 -43 -23
q107 -43 148 -118t7 -152q-49 -123 -256 -123q-138 0 -202 56t-66 138q0 109 109 169q31 17 61 30q-124 49 -127 168q-1 76 57 126t172 50zM1225 1290h104l-831 -1290h-105zM1536 404v18q0 140 -111 200q-37 19 -96 19t-100 -39q-51 -44 -51 -121q0 -102 82 -141
q33 -16 85 -16q115 0 189 65q2 4 2 15zM1626 395q0 -205 -86 -309t-233 -104q-110 0 -189 55l49 67q15 -16 57 -29q99 -31 174 6q112 53 136 228q-91 -69 -199 -68t-179 64t-71 174t76 175q76 63 176 65q147 0 218 -88t71 -236z" />
    <glyph glyph-name="zero.alt" unicode="&#xf800;" horiz-adv-x="1134" 
d="M220 158q-126 185 -126 498t125 492t348 179t349 -181t125 -493q-1 -313 -126 -496q-125 -182 -347 -182q-221 0 -348 183zM567 70q178 0 274 153q95 155 95 433t-95 428t-273 151q-178 0 -274 -151q-95 -152 -95 -430t95 -431t273 -153z" />
    <glyph glyph-name="one.alt" unicode="&#xf801;" horiz-adv-x="851" 
d="M197 90h243v1114l-295 -160l-41 74l336 189h99v-1217h243v-90h-585v90z" />
    <glyph glyph-name="two.alt" unicode="&#xf802;" horiz-adv-x="1013" 
d="M104 90q0 109 69 203t252 238q183 145 268 250t83 214q0 164 -151 220q-51 19 -121 19q-122 1 -207 -56q-53 -36 -111 -111l-73 51q77 132 240 188q65 22 154 22q176 -1 276 -95t100 -238t-102 -269q-71 -87 -226 -210q-53 -43 -98 -79t-103 -87t-100 -113
q-41 -62 -41 -145h690v-92h-799v90z" />
    <glyph glyph-name="three.alt" unicode="&#xf803;" horiz-adv-x="1015" 
d="M529 750q57 0 127 -26t121 -74q108 -104 108 -288t-126 -290q-126 -105 -321 -105q-139 0 -229 42q-91 42 -156 93l62 78q64 -51 109 -73q99 -47 240 -47q140 -1 230 83t90 231t-83 217t-218 73q-62 0 -147 -25l-39 68l416 497h-568v90h693v-88l-402 -465q36 9 93 9z" />
    <glyph glyph-name="four.alt" unicode="&#xf804;" horiz-adv-x="1054" 
d="M723 389v764l-526 -764h526zM819 1294v-905h150v-90h-150v-299h-96v299h-629v90l623 905h102z" />
    <glyph glyph-name="five.alt" unicode="&#xf805;" horiz-adv-x="1028" 
d="M791 370q0 216 -153 295q-58 29 -156 29t-159 -24q-62 -24 -112 -54l-49 37l108 641h576v-92h-502l-76 -471q113 55 216 55q197 0 305 -102t108 -293t-123 -308q-123 -116 -334 -116t-377 131l60 78q155 -117 305 -117q257 0 338 190q25 59 25 121z" />
    <glyph glyph-name="six.alt" unicode="&#xf806;" horiz-adv-x="1095" 
d="M252 549v-39q0 -303 178 -413q63 -38 136 -38q214 0 299 178q30 60 30 135t-12 135q-41 204 -301 204q-198 0 -328 -136q-2 -10 -2 -26zM677 1231q-115 0 -191 -45q-210 -124 -232 -502q141 123 341 123t299 -111t99 -311t-123 -309t-259 -109t-220 42q-240 120 -237 554
q0 377 136 569t386 191q92 0 159 -30t97 -56l-51 -76q-89 70 -204 70z" />
    <glyph glyph-name="seven.alt" unicode="&#xf807;" horiz-adv-x="933" 
d="M49 1202v92h809v-90q-150 -249 -382 -790q-112 -267 -154 -414h-111q87 259 251 627q163 368 283 575h-696z" />
    <glyph glyph-name="eight.alt" unicode="&#xf808;" horiz-adv-x="1116" 
d="M557 1237q-131 0 -203 -61t-71 -166q0 -187 274 -275q275 96 275 282q0 101 -72 161q-72 59 -203 59zM221 316q0 -122 110 -197q87 -60 226 -62q217 0 304 145q30 50 30 114t-29 114q-79 134 -319 215q-68 -23 -126 -54q-196 -109 -196 -275zM930 1026q0 -223 -264 -334
q185 -62 282 -202q49 -72 49 -152q0 -249 -237 -339q-84 -32 -204 -32t-203 32q-162 62 -214 199q-53 137 9 253q61 116 183 185q56 31 105 54q-127 62 -171 110t-62 96q-19 48 -19 115t25 125q51 117 188 167q70 25 160 25t160 -26q138 -48 188 -160q25 -54 25 -116z" />
    <glyph glyph-name="nine.alt" unicode="&#xf809;" horiz-adv-x="1095" 
d="M846 745v39q0 306 -178 413q-63 38 -136 38q-138 0 -234 -85t-96 -239q1 -153 59 -229q75 -100 265 -99q189 1 318 136q2 10 2 26zM217 133q88 -70 204 -70q208 0 309 156t114 391q-138 -120 -339 -121q-202 -2 -301 109q-100 111 -100 313t133 316q116 102 267 100
q336 0 416 -349q25 -110 24 -247q0 -377 -136 -568t-386 -192q-92 0 -159 30t-97 56z" />
    <glyph glyph-name="zero.sups" unicode="&#xf80a;" 
d="M357 774q-134 0 -220 96t-86 274t86 273q85 94 221 94t221 -96t85 -272t-86 -273q-87 -96 -221 -96zM357 852q88 0 150 71t62 223t-61 219t-149 68t-150 -67t-64 -221q0 -82 19 -137q36 -106 118 -140q38 -16 75 -16z" />
    <glyph glyph-name="one.sups" unicode="&#xf80b;" 
d="M473 1491v-696h-90v606l-213 -103l-33 68l258 125h78z" />
    <glyph glyph-name="two.sups" unicode="&#xf80c;" 
d="M100 872q0 69 61 122t150 106q89 52 124 82q68 60 68 123q1 63 -47 94t-110 31t-114 -30t-82 -71l-62 55q36 45 104 86t146 41q136 0 199 -59t63 -145q0 -126 -153 -224q-41 -27 -93 -57t-103 -63q-50 -35 -50 -86h405v-82h-506v77z" />
    <glyph glyph-name="three.sups" unicode="&#xf80d;" 
d="M504 999q0 146 -173 146q-39 0 -71 -10l-24 47l219 239h-318v70h430v-57l-217 -228q16 4 37 4q95 0 151 -61t56 -153t-77 -157t-203 -65t-228 64l45 67q71 -55 167 -55q95 0 151 40q55 40 55 109z" />
    <glyph glyph-name="four.sups" unicode="&#xf80e;" 
d="M477 1024v367l-301 -367h301zM559 1491v-467h88v-74h-88v-153h-82v153h-397v72l387 469h92z" />
    <glyph glyph-name="five.sups" unicode="&#xf80f;" 
d="M154 913q83 -59 191 -59q107 0 157 83q18 31 18 89t-47 96t-119 39q-72 0 -149 -24l-41 34l51 320h363v-80h-295l-31 -188q48 14 110 14q114 0 184 -62q68 -62 68 -163q0 -100 -74 -168t-204 -69t-225 67z" />
    <glyph glyph-name="six.sups" unicode="&#xf810;" 
d="M197 1089v-18q0 -144 108 -201q37 -18 93 -18q57 0 106 41t49 110q-1 70 -25 102q-49 64 -152 64t-177 -65q-2 -4 -2 -15zM574 1188q71 -63 71 -177t-76 -174t-176 -63q-147 0 -218 89t-71 235q0 205 88 309t246 104q97 0 174 -55l-49 -65q-45 39 -114 40
q-117 2 -177 -66t-73 -181q91 69 197 68q107 -1 178 -64z" />
    <glyph glyph-name="seven.sups" unicode="&#xf811;" 
d="M104 1415v76h486v-78q-99 -157 -219 -458q-37 -89 -62 -160h-100q147 392 289 620h-394z" />
    <glyph glyph-name="eight.sups" unicode="&#xf812;" 
d="M510 1329q0 53 -38 82t-102 29t-102 -29t-37 -82q-1 -53 45 -81t101 -44q133 45 133 125zM369 848q174 0 178 125q0 76 -120 131q-34 14 -69 26q-168 -56 -168 -143q0 -51 16 -75q44 -64 163 -64zM372 1511q114 0 169 -50t55 -133t-84 -138q-23 -15 -43 -23
q105 -42 152 -123q18 -32 18 -72q0 -136 -144 -181q-52 -17 -126 -17t-125 16q-140 45 -142 177t168 200q-83 33 -114 106q-12 28 -13 62q-1 76 57 126t172 50z" />
    <glyph glyph-name="nine.sups" unicode="&#xf813;" 
d="M530 1197v17q0 142 -110 200q-69 35 -137 14q-68 -22 -97 -83q-14 -30 -14 -81t24 -83q48 -63 144 -65q51 0 103 18t85 48q2 4 2 15zM306 854q95 0 152 68t70 180q-90 -68 -198 -68t-179 64t-71 174q0 111 77 175t175 64q147 0 218 -88t71 -235q0 -205 -86 -309
t-234 -105q-105 0 -188 55l49 68q16 -15 57 -29t87 -14z" />
    <glyph glyph-name="zero.sinf" unicode="&#xf814;" 
d="M357 -203q-134 1 -220 97t-86 274t86 272t221 94t221 -96q85 -97 85 -272q0 -176 -86 -272t-221 -97zM357 -125q88 0 150 71t62 223t-61 219t-149 68t-150 -67t-64 -221q0 -82 19 -137q36 -107 118 -141q38 -16 75 -15z" />
    <glyph glyph-name="one.sinf" unicode="&#xf815;" 
d="M473 514v-696h-90v606l-213 -102l-33 67l258 125h78z" />
    <glyph glyph-name="two.sinf" unicode="&#xf816;" 
d="M100 -104q0 68 61 121t150 106q89 52 124 82q68 60 68 124q1 63 -47 93t-110 31q-62 0 -114 -30t-82 -71l-62 56q36 45 104 86t146 41q78 1 124 -17q138 -51 138 -182t-153 -230q-41 -26 -93 -56t-103 -64q-50 -35 -50 -86h405v-82h-506v78z" />
    <glyph glyph-name="three.sinf" unicode="&#xf817;" 
d="M504 23q0 145 -173 145q-39 0 -71 -10l-24 47l219 239h-318v70h430v-57l-217 -228q16 4 37 4q95 0 151 -61t56 -153t-77 -157t-203 -65t-228 64l45 67q71 -55 167 -55q95 0 151 40q55 40 55 110z" />
    <glyph glyph-name="four.sinf" unicode="&#xf818;" 
d="M477 47v367l-301 -367h301zM559 514v-467h88v-74h-88v-153h-82v153h-397v72l387 469h92z" />
    <glyph glyph-name="five.sinf" unicode="&#xf819;" 
d="M520 48q0 58 -47 98q-47 38 -119 38t-149 -24q-19 15 -41 35l51 319h363v-80h-295l-31 -188q48 14 110 14q114 0 184 -62q68 -62 68 -163q0 -100 -74 -168t-204 -69t-225 67l43 72q85 -60 192 -60t156 83q18 30 18 88z" />
    <glyph glyph-name="six.sinf" unicode="&#xf81a;" 
d="M197 112v-18q0 -146 108 -200q71 -34 144 -9q104 36 104 148q-1 63 -25 95q-48 63 -151 64t-178 -65q-2 -4 -2 -15zM574 211q71 -63 71 -177t-76 -174t-176 -63q-147 0 -218 89t-71 235q0 205 88 309t246 105q96 0 174 -56l-49 -65q-45 39 -114 40q-117 2 -177 -66
t-73 -181q91 69 197 68q107 -1 178 -64z" />
    <glyph glyph-name="seven.sinf" unicode="&#xf81b;" 
d="M104 438v76h486v-78q-99 -157 -219 -458q-37 -89 -62 -160h-100q147 392 289 620h-394z" />
    <glyph glyph-name="eight.sinf" unicode="&#xf81c;" 
d="M510 352q0 53 -38 82t-102 29t-102 -29t-37 -82q-1 -53 45 -81t101 -44q133 45 133 125zM370 -129q74 1 110 21q65 37 67 104q0 93 -189 158q-168 -56 -168 -144q0 -51 17 -75q43 -64 163 -64zM541 484q55 -50 55 -133t-84 -138q-23 -15 -43 -23q104 -42 152 -122
q18 -33 18 -73q0 -137 -144 -181q-52 -16 -126 -16t-125 16q-140 45 -142 176q-2 132 168 200q-83 33 -114 106q-12 28 -13 62q-1 76 57 126t172 50t169 -50z" />
    <glyph glyph-name="nine.sinf" unicode="&#xf81d;" 
d="M530 220v18q0 141 -110 199q-69 35 -137 14q-68 -22 -97 -83q-14 -30 -14 -81t24 -83q48 -63 144 -65q51 1 103 19t85 47q2 4 2 15zM306 -123q93 0 151 68t71 180q-90 -68 -198 -68q-108 -1 -179 63t-71 175t76 175q76 63 176 65q147 -1 218 -89t71 -235q0 -205 -86 -309
t-234 -105q-108 0 -188 56l49 67q16 -16 57 -30t87 -13z" />
    <glyph glyph-name="hungarumlaut.cap" horiz-adv-x="811" 
d="M596 1774h123l-205 -289h-90zM264 1774h123l-205 -289h-90z" />
    <glyph glyph-name="cedilla.cap" horiz-adv-x="669" 
d="M295 -362q160 0 160 92q0 80 -133 80q-77 0 -168 -31l14 82q92 30 164 30q166 0 208 -103q11 -28 11 -54q0 -86 -71 -132t-174 -46t-189 36l16 80q82 -34 162 -34z" />
    <glyph glyph-name="tilde.cap" horiz-adv-x="831" 
d="M551 1624q75 0 151 76l58 -62q-93 -102 -209 -102q-67 0 -147 48q-30 16 -58 32t-65 16q-80 0 -158 -76l-51 60q96 106 209 104q71 0 148 -48q31 -16 59 -32t63 -16z" />
    <glyph glyph-name="ogonek.cap" horiz-adv-x="716" 
d="M158 -266q0 93 99 207q28 31 54 59h113q-70 -59 -115 -125t-45 -114q0 -91 94 -91q57 0 138 51l41 -73q-85 -64 -183 -65q-196 -2 -196 151z" />
    <glyph glyph-name="ring.cap" horiz-adv-x="632" 
d="M331 1483q56 0 96 40t40 100t-40 98t-96 38t-95 -39t-39 -99t39 -99t95 -39zM117 1622q0 94 61 154q60 60 152 59q92 0 154 -59q62 -60 62 -154t-60 -154q-62 -60 -153 -61q-91 0 -154 60q-62 61 -62 155z" />
    <glyph glyph-name="caron.cap" horiz-adv-x="753" 
d="M68 1774h106l182 -222l183 222h108l-239 -289h-109z" />
    <glyph glyph-name="macron.cap" horiz-adv-x="698" 
d="M25 1667h647v-86h-647v86z" />
    <glyph glyph-name="dieresis.cap" horiz-adv-x="647" 
d="M86 1698h135v-142h-135v142zM426 1698h135v-142h-135v142z" />
    <glyph glyph-name="dotaccent.cap" horiz-adv-x="292" 
d="M74 1702h147v-146h-147v146z" />
    <glyph glyph-name="circumflex.cap" horiz-adv-x="753" 
d="M326 1774h108l232 -289h-107l-182 221l-182 -221h-109z" />
    <glyph glyph-name="acute.cap" horiz-adv-x="448" 
d="M233 1774h132l-193 -289h-90z" />
    <glyph glyph-name="grave.cap" horiz-adv-x="448" 
d="M86 1774h125l154 -289h-91z" />
    <glyph glyph-name="breve.cap" horiz-adv-x="716" 
d="M360 1585q82 0 128 39t51 98h88q-4 -92 -73 -154t-194 -62q-126 -1 -194 63t-74 153h92q4 -59 49 -98t127 -39z" />
    <glyph glyph-name="commaaccent.cap" horiz-adv-x="565" 
d="M262 -131h117l-152 -283h-92z" />
    <glyph glyph-name="caron.alt" horiz-adv-x="753" 
d="M313 1366h97l-23 -365h-74v365z" />
    <glyph glyph-name="commaaccent" horiz-adv-x="323" 
d="M156 -131h104l-145 -283h-84z" />
    <glyph glyph-name="revcommaaccent" horiz-adv-x="358" 
d="M213 1366h86l-123 -262h-119z" />
    <glyph glyph-name="at.alt" horiz-adv-x="1744" 
d="M219 233q0 -86 65 -128q66 -42 146 -42q151 0 258 81q107 83 107 204v88q-99 23 -237 23t-200 -25t-100 -70q-39 -45 -39 -131zM795 817v203h92v-203h311v-86h-311v-432q0 -236 238 -240q188 -3 298 159q111 163 111 435q0 336 -198 508q-171 150 -444 150t-439 -164
q-149 -145 -158 -330h500zM545 541q129 0 250 -23v213h-611q6 172 70 298q123 246 385 330q125 40 269 40t278 -48q275 -98 390 -378q56 -139 56 -321t-45 -310q-87 -249 -280 -334q-90 -39 -155 -39q-125 0 -205 40q-104 52 -132 145q-134 -174 -393 -179q-194 0 -276 137
q-30 50 -30 118t23 123q80 188 406 188z" />
  </font>
</defs>
</svg>
